<svg width="1085" height="196" viewBox="0 0 1085 196" fill="none" xmlns="http://www.w3.org/2000/svg">
<mask id="mask0_2508_114" style="mask-type:alpha" maskUnits="userSpaceOnUse" x="0" y="0" width="1085" height="196">
<path d="M222.727 41.4181L176.432 56.4256L97.0459 38.3799L68.3283 22.9623V2.9523L41.9212 26.4105L49.1831 41.4181L34.9894 56.4256V74.9557L97.0459 90.8653L0 85.2887L145.734 138.678L184.437 159.714L217.528 165.329L209.276 181.895L255.158 195.836L238.984 180.75H921.936L947.023 182.059L962.867 189.275L960.557 183.207L974.916 188.619L980.032 196V178.45L966.498 168.281L1051 136.79L1085 106.119L1030.21 99.3941L1000.83 70.6131L986.634 52.9774L960.227 40.0201L980.692 33.7874L977.721 12.9573L967.819 19.19H949.994L947.683 7.8728L925.237 0L935.47 7.8728L921.276 19.19L888.598 26.4105H360.456L265.061 19.518L222.727 41.4181Z" fill="white"/>
</mask>
<g mask="url(#mask0_2508_114)">
<path d="M222.727 41.4181L176.432 56.4256L130 45.5L68.3283 22.9623V2L53.5 30.5L61.5 56.4256L77 68.5L61.5 77.5L97.0459 90.8653L81 116L145.734 138.678L184.437 159.714L217.528 165.329L209.276 181.895L255.158 195.836L238.984 180.75H921.936L943.5 177.5L962.867 189.275L960.557 183.207H969.5L979.5 191L974.916 174.5L950 158.5L990 133L1076 104L1030.21 99.3941L1000.83 70.6131L986.634 52.9774L960.227 40.0201L980.692 33.7874L977.721 12.9573L967.819 19.19H949.994L947.683 7.8728L925.237 0L935.47 7.8728L921.276 19.19L888.598 26.4105H360.456L265.061 19.518L222.727 41.4181Z" fill="white"/>
<path d="M290.991 42.9694L173 84.1429L285.445 165.571L876.012 172L990 117.051L876.012 37L290.991 42.9694Z" fill="#33CCEB"/>
<path d="M64 32.73V16L79.5891 24.6996L101.149 36.2433H118.728L131 60L86.2228 51.4677L64 32.73Z" fill="#FFC73C"/>
<path d="M170.675 24.2561L136.399 29.4915L176.118 44.7997L170.675 24.2561Z" fill="#FFC73C"/>
<path d="M90 130L39.9091 115L52.1023 125.421L32 130H90Z" fill="white"/>
<path d="M1041.57 95L1024 81L1065 95H1041.57Z" fill="white" stroke="black"/>
<path d="M1124.63 95.2899L1044 48L1124.63 68.1967L1196 109.411L1115.37 148.327L1044 159L1124.63 95.2899Z" fill="white" stroke="black"/>
<path d="M99.8567 116.889C99.8567 120.894 96.6016 124.142 92.5861 124.142C88.5707 124.142 85.3155 120.894 85.3155 116.889C85.3155 112.884 88.5707 109.637 92.5861 109.637C96.6016 109.637 99.8567 112.884 99.8567 116.889Z" fill="url(#paint0_linear_2508_114)"/>
<path d="M99.8567 137.766C99.8567 141.772 96.6016 145.019 92.5861 145.019C88.5707 145.019 85.3155 141.772 85.3155 137.766C85.3155 133.761 88.5707 130.514 92.5861 130.514C96.6016 130.514 99.8567 133.761 99.8567 137.766Z" fill="url(#paint1_linear_2508_114)"/>
<path d="M99.8567 158.644C99.8567 162.649 96.6016 165.896 92.5861 165.896C88.5707 165.896 85.3155 162.649 85.3155 158.644C85.3155 154.638 88.5707 151.391 92.5861 151.391C96.6016 151.391 99.8567 154.638 99.8567 158.644Z" fill="url(#paint2_linear_2508_114)"/>
<path d="M99.8567 179.525C99.8567 183.531 96.6016 186.778 92.5861 186.778C88.5707 186.778 85.3155 183.531 85.3155 179.525C85.3155 175.52 88.5707 172.273 92.5861 172.273C96.6016 172.273 99.8567 175.52 99.8567 179.525Z" fill="url(#paint3_linear_2508_114)"/>
<path d="M99.8567 200.402C99.8567 204.408 96.6016 207.655 92.5861 207.655C88.5707 207.655 85.3155 204.408 85.3155 200.402C85.3155 196.397 88.5707 193.15 92.5861 193.15C96.6016 193.15 99.8567 196.397 99.8567 200.402Z" fill="url(#paint4_linear_2508_114)"/>
<path d="M92.5861 228.532C96.6016 228.532 99.8567 225.285 99.8567 221.28C99.8567 217.274 96.6016 214.027 92.5861 214.027C88.5707 214.027 85.3155 217.274 85.3155 221.28C85.3155 225.285 88.5707 228.532 92.5861 228.532Z" fill="url(#paint5_linear_2508_114)"/>
<path d="M109.283 228.532C113.299 228.532 116.554 225.285 116.554 221.28C116.554 217.274 113.299 214.027 109.283 214.027C105.268 214.027 102.012 217.274 102.012 221.28C102.012 225.285 105.268 228.532 109.283 228.532Z" fill="url(#paint6_linear_2508_114)"/>
<path d="M133.251 221.28C133.251 225.285 129.996 228.532 125.98 228.532C121.965 228.532 118.709 225.285 118.709 221.28C118.709 217.274 121.965 214.027 125.98 214.027C129.996 214.027 133.251 217.274 133.251 221.28Z" fill="url(#paint7_linear_2508_114)"/>
<path d="M142.677 228.532C146.693 228.532 149.948 225.285 149.948 221.28C149.948 217.274 146.693 214.027 142.677 214.027C138.662 214.027 135.406 217.274 135.406 221.28C135.406 225.285 138.662 228.532 142.677 228.532Z" fill="url(#paint8_linear_2508_114)"/>
<path d="M166.645 221.28C166.645 225.285 163.39 228.532 159.374 228.532C155.359 228.532 152.103 225.285 152.103 221.28C152.103 217.274 155.359 214.027 159.374 214.027C163.39 214.027 166.645 217.274 166.645 221.28Z" fill="url(#paint9_linear_2508_114)"/>
<path d="M176.071 228.532C180.087 228.532 183.342 225.285 183.342 221.28C183.342 217.274 180.087 214.027 176.071 214.027C172.056 214.027 168.8 217.274 168.8 221.28C168.8 225.285 172.056 228.532 176.071 228.532Z" fill="url(#paint10_linear_2508_114)"/>
<path d="M200.039 221.28C200.039 225.285 196.784 228.532 192.768 228.532C188.753 228.532 185.497 225.285 185.497 221.28C185.497 217.274 188.753 214.027 192.768 214.027C196.784 214.027 200.039 217.274 200.039 221.28Z" fill="url(#paint11_linear_2508_114)"/>
<path d="M209.465 228.532C213.481 228.532 216.736 225.285 216.736 221.28C216.736 217.274 213.481 214.027 209.465 214.027C205.45 214.027 202.194 217.274 202.194 221.28C202.194 225.285 205.45 228.532 209.465 228.532Z" fill="url(#paint12_linear_2508_114)"/>
<path d="M233.433 221.28C233.433 225.285 230.178 228.532 226.162 228.532C222.147 228.532 218.891 225.285 218.891 221.28C218.891 217.274 222.147 214.027 226.162 214.027C230.178 214.027 233.433 217.274 233.433 221.28Z" fill="url(#paint13_linear_2508_114)"/>
<path d="M242.85 228.532C246.866 228.532 250.121 225.285 250.121 221.28C250.121 217.274 246.866 214.027 242.85 214.027C238.835 214.027 235.58 217.274 235.58 221.28C235.58 225.285 238.835 228.532 242.85 228.532Z" fill="url(#paint14_linear_2508_114)"/>
<path d="M109.283 207.655C113.299 207.655 116.554 204.408 116.554 200.402C116.554 196.397 113.299 193.15 109.283 193.15C105.268 193.15 102.012 196.397 102.012 200.402C102.012 204.408 105.268 207.655 109.283 207.655Z" fill="url(#paint15_linear_2508_114)"/>
<path d="M133.251 200.402C133.251 204.408 129.996 207.655 125.98 207.655C121.965 207.655 118.709 204.408 118.709 200.402C118.709 196.397 121.965 193.15 125.98 193.15C129.996 193.15 133.251 196.397 133.251 200.402Z" fill="url(#paint16_linear_2508_114)"/>
<path d="M142.677 207.655C146.693 207.655 149.948 204.408 149.948 200.402C149.948 196.397 146.693 193.15 142.677 193.15C138.662 193.15 135.406 196.397 135.406 200.402C135.406 204.408 138.662 207.655 142.677 207.655Z" fill="url(#paint17_linear_2508_114)"/>
<path d="M166.645 200.402C166.645 204.408 163.39 207.655 159.374 207.655C155.359 207.655 152.103 204.408 152.103 200.402C152.103 196.397 155.359 193.15 159.374 193.15C163.39 193.15 166.645 196.397 166.645 200.402Z" fill="url(#paint18_linear_2508_114)"/>
<path d="M176.071 207.655C180.087 207.655 183.342 204.408 183.342 200.402C183.342 196.397 180.087 193.15 176.071 193.15C172.056 193.15 168.8 196.397 168.8 200.402C168.8 204.408 172.056 207.655 176.071 207.655Z" fill="url(#paint19_linear_2508_114)"/>
<path d="M200.039 200.402C200.039 204.408 196.784 207.655 192.768 207.655C188.753 207.655 185.497 204.408 185.497 200.402C185.497 196.397 188.753 193.15 192.768 193.15C196.784 193.15 200.039 196.397 200.039 200.402Z" fill="url(#paint20_linear_2508_114)"/>
<path d="M209.465 207.655C213.481 207.655 216.736 204.408 216.736 200.402C216.736 196.397 213.481 193.15 209.465 193.15C205.45 193.15 202.194 196.397 202.194 200.402C202.194 204.408 205.45 207.655 209.465 207.655Z" fill="url(#paint21_linear_2508_114)"/>
<path d="M233.433 200.402C233.433 204.408 230.178 207.655 226.162 207.655C222.147 207.655 218.891 204.408 218.891 200.402C218.891 196.397 222.147 193.15 226.162 193.15C230.178 193.15 233.433 196.397 233.433 200.402Z" fill="url(#paint22_linear_2508_114)"/>
<path d="M242.85 207.655C246.866 207.655 250.121 204.408 250.121 200.402C250.121 196.397 246.866 193.15 242.85 193.15C238.835 193.15 235.58 196.397 235.58 200.402C235.58 204.408 238.835 207.655 242.85 207.655Z" fill="url(#paint23_linear_2508_114)"/>
<path d="M109.283 186.778C113.299 186.778 116.554 183.531 116.554 179.525C116.554 175.52 113.299 172.273 109.283 172.273C105.268 172.273 102.012 175.52 102.012 179.525C102.012 183.531 105.268 186.778 109.283 186.778Z" fill="url(#paint24_linear_2508_114)"/>
<path d="M133.251 179.525C133.251 183.531 129.996 186.778 125.98 186.778C121.965 186.778 118.709 183.531 118.709 179.525C118.709 175.52 121.965 172.273 125.98 172.273C129.996 172.273 133.251 175.52 133.251 179.525Z" fill="url(#paint25_linear_2508_114)"/>
<path d="M142.677 186.778C146.693 186.778 149.948 183.531 149.948 179.525C149.948 175.52 146.693 172.273 142.677 172.273C138.662 172.273 135.406 175.52 135.406 179.525C135.406 183.531 138.662 186.778 142.677 186.778Z" fill="url(#paint26_linear_2508_114)"/>
<path d="M166.645 179.525C166.645 183.531 163.39 186.778 159.374 186.778C155.359 186.778 152.103 183.531 152.103 179.525C152.103 175.52 155.359 172.273 159.374 172.273C163.39 172.273 166.645 175.52 166.645 179.525Z" fill="url(#paint27_linear_2508_114)"/>
<path d="M176.071 186.778C180.087 186.778 183.342 183.531 183.342 179.525C183.342 175.52 180.087 172.273 176.071 172.273C172.056 172.273 168.8 175.52 168.8 179.525C168.8 183.531 172.056 186.778 176.071 186.778Z" fill="url(#paint28_linear_2508_114)"/>
<path d="M200.039 179.525C200.039 183.531 196.784 186.778 192.768 186.778C188.753 186.778 185.497 183.531 185.497 179.525C185.497 175.52 188.753 172.273 192.768 172.273C196.784 172.273 200.039 175.52 200.039 179.525Z" fill="url(#paint29_linear_2508_114)"/>
<path d="M209.465 186.778C213.481 186.778 216.736 183.531 216.736 179.525C216.736 175.52 213.481 172.273 209.465 172.273C205.45 172.273 202.194 175.52 202.194 179.525C202.194 183.531 205.45 186.778 209.465 186.778Z" fill="url(#paint30_linear_2508_114)"/>
<path d="M233.433 179.525C233.433 183.531 230.178 186.778 226.162 186.778C222.147 186.778 218.891 183.531 218.891 179.525C218.891 175.52 222.147 172.273 226.162 172.273C230.178 172.273 233.433 175.52 233.433 179.525Z" fill="url(#paint31_linear_2508_114)"/>
<path d="M242.85 186.778C246.866 186.778 250.121 183.531 250.121 179.525C250.121 175.52 246.866 172.273 242.85 172.273C238.835 172.273 235.58 175.52 235.58 179.525C235.58 183.531 238.835 186.778 242.85 186.778Z" fill="url(#paint32_linear_2508_114)"/>
<path d="M109.283 165.896C113.299 165.896 116.554 162.649 116.554 158.644C116.554 154.638 113.299 151.391 109.283 151.391C105.268 151.391 102.012 154.638 102.012 158.644C102.012 162.649 105.268 165.896 109.283 165.896Z" fill="url(#paint33_linear_2508_114)"/>
<path d="M133.251 158.644C133.251 162.649 129.996 165.896 125.98 165.896C121.965 165.896 118.709 162.649 118.709 158.644C118.709 154.638 121.965 151.391 125.98 151.391C129.996 151.391 133.251 154.638 133.251 158.644Z" fill="url(#paint34_linear_2508_114)"/>
<path d="M142.677 165.896C146.693 165.896 149.948 162.649 149.948 158.644C149.948 154.638 146.693 151.391 142.677 151.391C138.662 151.391 135.406 154.638 135.406 158.644C135.406 162.649 138.662 165.896 142.677 165.896Z" fill="url(#paint35_linear_2508_114)"/>
<path d="M166.645 158.644C166.645 162.649 163.39 165.896 159.374 165.896C155.359 165.896 152.103 162.649 152.103 158.644C152.103 154.638 155.359 151.391 159.374 151.391C163.39 151.391 166.645 154.638 166.645 158.644Z" fill="url(#paint36_linear_2508_114)"/>
<path d="M176.071 165.896C180.087 165.896 183.342 162.649 183.342 158.644C183.342 154.638 180.087 151.391 176.071 151.391C172.056 151.391 168.8 154.638 168.8 158.644C168.8 162.649 172.056 165.896 176.071 165.896Z" fill="url(#paint37_linear_2508_114)"/>
<path d="M200.039 158.644C200.039 162.649 196.784 165.896 192.768 165.896C188.753 165.896 185.497 162.649 185.497 158.644C185.497 154.638 188.753 151.391 192.768 151.391C196.784 151.391 200.039 154.638 200.039 158.644Z" fill="url(#paint38_linear_2508_114)"/>
<path d="M209.465 165.896C213.481 165.896 216.736 162.649 216.736 158.644C216.736 154.638 213.481 151.391 209.465 151.391C205.45 151.391 202.194 154.638 202.194 158.644C202.194 162.649 205.45 165.896 209.465 165.896Z" fill="url(#paint39_linear_2508_114)"/>
<path d="M233.433 158.644C233.433 162.649 230.178 165.896 226.162 165.896C222.147 165.896 218.891 162.649 218.891 158.644C218.891 154.638 222.147 151.391 226.162 151.391C230.178 151.391 233.433 154.638 233.433 158.644Z" fill="url(#paint40_linear_2508_114)"/>
<path d="M242.85 165.896C246.866 165.896 250.121 162.649 250.121 158.644C250.121 154.638 246.866 151.391 242.85 151.391C238.835 151.391 235.58 154.638 235.58 158.644C235.58 162.649 238.835 165.896 242.85 165.896Z" fill="url(#paint41_linear_2508_114)"/>
<path d="M109.283 145.019C113.299 145.019 116.554 141.772 116.554 137.766C116.554 133.761 113.299 130.514 109.283 130.514C105.268 130.514 102.012 133.761 102.012 137.766C102.012 141.772 105.268 145.019 109.283 145.019Z" fill="url(#paint42_linear_2508_114)"/>
<path d="M133.251 137.766C133.251 141.772 129.996 145.019 125.98 145.019C121.965 145.019 118.709 141.772 118.709 137.766C118.709 133.761 121.965 130.514 125.98 130.514C129.996 130.514 133.251 133.761 133.251 137.766Z" fill="url(#paint43_linear_2508_114)"/>
<path d="M142.677 145.019C146.693 145.019 149.948 141.772 149.948 137.766C149.948 133.761 146.693 130.514 142.677 130.514C138.662 130.514 135.406 133.761 135.406 137.766C135.406 141.772 138.662 145.019 142.677 145.019Z" fill="url(#paint44_linear_2508_114)"/>
<path d="M166.645 137.766C166.645 141.772 163.39 145.019 159.374 145.019C155.359 145.019 152.103 141.772 152.103 137.766C152.103 133.761 155.359 130.514 159.374 130.514C163.39 130.514 166.645 133.761 166.645 137.766Z" fill="url(#paint45_linear_2508_114)"/>
<path d="M176.071 145.019C180.087 145.019 183.342 141.772 183.342 137.766C183.342 133.761 180.087 130.514 176.071 130.514C172.056 130.514 168.8 133.761 168.8 137.766C168.8 141.772 172.056 145.019 176.071 145.019Z" fill="url(#paint46_linear_2508_114)"/>
<path d="M200.039 137.766C200.039 141.772 196.784 145.019 192.768 145.019C188.753 145.019 185.497 141.772 185.497 137.766C185.497 133.761 188.753 130.514 192.768 130.514C196.784 130.514 200.039 133.761 200.039 137.766Z" fill="url(#paint47_linear_2508_114)"/>
<path d="M209.465 145.019C213.481 145.019 216.736 141.772 216.736 137.766C216.736 133.761 213.481 130.514 209.465 130.514C205.45 130.514 202.194 133.761 202.194 137.766C202.194 141.772 205.45 145.019 209.465 145.019Z" fill="url(#paint48_linear_2508_114)"/>
<path d="M233.433 137.766C233.433 141.772 230.178 145.019 226.162 145.019C222.147 145.019 218.891 141.772 218.891 137.766C218.891 133.761 222.147 130.514 226.162 130.514C230.178 130.514 233.433 133.761 233.433 137.766Z" fill="url(#paint49_linear_2508_114)"/>
<path d="M242.85 145.019C246.866 145.019 250.121 141.772 250.121 137.766C250.121 133.761 246.866 130.514 242.85 130.514C238.835 130.514 235.58 133.761 235.58 137.766C235.58 141.772 238.835 145.019 242.85 145.019Z" fill="url(#paint50_linear_2508_114)"/>
<path d="M109.283 124.142C113.299 124.142 116.554 120.894 116.554 116.889C116.554 112.884 113.299 109.637 109.283 109.637C105.268 109.637 102.012 112.884 102.012 116.889C102.012 120.894 105.268 124.142 109.283 124.142Z" fill="url(#paint51_linear_2508_114)"/>
<path d="M133.251 116.889C133.251 120.894 129.996 124.142 125.98 124.142C121.965 124.142 118.709 120.894 118.709 116.889C118.709 112.884 121.965 109.637 125.98 109.637C129.996 109.637 133.251 112.884 133.251 116.889Z" fill="url(#paint52_linear_2508_114)"/>
<path d="M142.677 124.142C146.693 124.142 149.948 120.894 149.948 116.889C149.948 112.884 146.693 109.637 142.677 109.637C138.662 109.637 135.406 112.884 135.406 116.889C135.406 120.894 138.662 124.142 142.677 124.142Z" fill="url(#paint53_linear_2508_114)"/>
<path d="M166.645 116.889C166.645 120.894 163.39 124.142 159.374 124.142C155.359 124.142 152.103 120.894 152.103 116.889C152.103 112.884 155.359 109.637 159.374 109.637C163.39 109.637 166.645 112.884 166.645 116.889Z" fill="url(#paint54_linear_2508_114)"/>
<path d="M176.071 124.142C180.087 124.142 183.342 120.894 183.342 116.889C183.342 112.884 180.087 109.637 176.071 109.637C172.056 109.637 168.8 112.884 168.8 116.889C168.8 120.894 172.056 124.142 176.071 124.142Z" fill="url(#paint55_linear_2508_114)"/>
<path d="M200.039 116.889C200.039 120.894 196.784 124.142 192.768 124.142C188.753 124.142 185.497 120.894 185.497 116.889C185.497 112.884 188.753 109.637 192.768 109.637C196.784 109.637 200.039 112.884 200.039 116.889Z" fill="url(#paint56_linear_2508_114)"/>
<path d="M209.465 124.142C213.481 124.142 216.736 120.894 216.736 116.889C216.736 112.884 213.481 109.637 209.465 109.637C205.45 109.637 202.194 112.884 202.194 116.889C202.194 120.894 205.45 124.142 209.465 124.142Z" fill="url(#paint57_linear_2508_114)"/>
<path d="M233.433 116.889C233.433 120.894 230.178 124.142 226.162 124.142C222.147 124.142 218.891 120.894 218.891 116.889C218.891 112.884 222.147 109.637 226.162 109.637C230.178 109.637 233.433 112.884 233.433 116.889Z" fill="url(#paint58_linear_2508_114)"/>
<path d="M242.85 124.142C246.866 124.142 250.121 120.894 250.121 116.889C250.121 112.884 246.866 109.637 242.85 109.637C238.835 109.637 235.58 112.884 235.58 116.889C235.58 120.894 238.835 124.142 242.85 124.142Z" fill="url(#paint59_linear_2508_114)"/>
<path d="M898.297 11.2582C898.297 14.7877 895.437 17.6489 891.909 17.6489C888.381 17.6489 885.521 14.7877 885.521 11.2582C885.521 7.72862 888.381 4.86737 891.909 4.86737C895.437 4.86737 898.297 7.72862 898.297 11.2582Z" fill="url(#paint60_radial_2508_114)"/>
<path d="M898.297 29.6549C898.297 33.1845 895.437 36.0457 891.909 36.0457C888.381 36.0457 885.521 33.1845 885.521 29.6549C885.521 26.1254 888.381 23.2641 891.909 23.2641C895.437 23.2641 898.297 26.1254 898.297 29.6549Z" fill="url(#paint61_radial_2508_114)"/>
<path d="M898.297 48.0517C898.297 51.5812 895.437 54.4425 891.909 54.4425C888.381 54.4425 885.521 51.5812 885.521 48.0517C885.521 44.5222 888.381 41.6609 891.909 41.6609C895.437 41.6609 898.297 44.5222 898.297 48.0517Z" fill="url(#paint62_radial_2508_114)"/>
<path d="M898.297 66.4523C898.297 69.9818 895.437 72.8431 891.909 72.8431C888.381 72.8431 885.521 69.9818 885.521 66.4523C885.521 62.9227 888.381 60.0615 891.909 60.0615C895.437 60.0615 898.297 62.9227 898.297 66.4523Z" fill="url(#paint63_radial_2508_114)"/>
<path d="M898.297 84.8491C898.297 88.3786 895.437 91.2398 891.909 91.2398C888.381 91.2398 885.521 88.3786 885.521 84.8491C885.521 81.3195 888.381 78.4583 891.909 78.4583C895.437 78.4583 898.297 81.3195 898.297 84.8491Z" fill="url(#paint64_radial_2508_114)"/>
<path d="M891.909 109.637C895.437 109.637 898.297 106.775 898.297 103.246C898.297 99.7163 895.437 96.855 891.909 96.855C888.381 96.855 885.521 99.7163 885.521 103.246C885.521 106.775 888.381 109.637 891.909 109.637Z" fill="url(#paint65_radial_2508_114)"/>
<path d="M906.579 109.637C910.106 109.637 912.966 106.775 912.966 103.246C912.966 99.7163 910.106 96.855 906.579 96.855C903.051 96.855 900.191 99.7163 900.191 103.246C900.191 106.775 903.051 109.637 906.579 109.637Z" fill="url(#paint66_radial_2508_114)"/>
<path d="M927.636 103.246C927.636 106.775 924.776 109.637 921.248 109.637C917.72 109.637 914.86 106.775 914.86 103.246C914.86 99.7163 917.72 96.855 921.248 96.855C924.776 96.855 927.636 99.7163 927.636 103.246Z" fill="url(#paint67_radial_2508_114)"/>
<path d="M935.918 109.637C939.445 109.637 942.305 106.775 942.305 103.246C942.305 99.7163 939.445 96.855 935.918 96.855C932.39 96.855 929.53 99.7163 929.53 103.246C929.53 106.775 932.39 109.637 935.918 109.637Z" fill="url(#paint68_radial_2508_114)"/>
<path d="M956.975 103.246C956.975 106.775 954.115 109.637 950.587 109.637C947.059 109.637 944.199 106.775 944.199 103.246C944.199 99.7163 947.059 96.855 950.587 96.855C954.115 96.855 956.975 99.7163 956.975 103.246Z" fill="url(#paint69_radial_2508_114)"/>
<path d="M965.256 109.637C968.784 109.637 971.644 106.775 971.644 103.246C971.644 99.7163 968.784 96.855 965.256 96.855C961.729 96.855 958.869 99.7163 958.869 103.246C958.869 106.775 961.729 109.637 965.256 109.637Z" fill="url(#paint70_radial_2508_114)"/>
<path d="M986.314 103.246C986.314 106.775 983.454 109.637 979.926 109.637C976.398 109.637 973.538 106.775 973.538 103.246C973.538 99.7163 976.398 96.855 979.926 96.855C983.454 96.855 986.314 99.7163 986.314 103.246Z" fill="url(#paint71_radial_2508_114)"/>
<path d="M994.595 109.637C998.123 109.637 1000.98 106.775 1000.98 103.246C1000.98 99.7163 998.123 96.855 994.595 96.855C991.068 96.855 988.208 99.7163 988.208 103.246C988.208 106.775 991.068 109.637 994.595 109.637Z" fill="url(#paint72_radial_2508_114)"/>
<path d="M1015.65 103.246C1015.65 106.775 1012.79 109.637 1009.27 109.637C1005.74 109.637 1002.88 106.775 1002.88 103.246C1002.88 99.7163 1005.74 96.855 1009.27 96.855C1012.79 96.855 1015.65 99.7163 1015.65 103.246Z" fill="url(#paint73_radial_2508_114)"/>
<path d="M1023.93 109.637C1027.45 109.637 1030.31 106.775 1030.31 103.246C1030.31 99.7163 1027.45 96.855 1023.93 96.855C1020.4 96.855 1017.54 99.7163 1017.54 103.246C1017.54 106.775 1020.4 109.637 1023.93 109.637Z" fill="url(#paint74_radial_2508_114)"/>
<path d="M906.579 91.2398C910.106 91.2398 912.966 88.3786 912.966 84.8491C912.966 81.3195 910.106 78.4583 906.579 78.4583C903.051 78.4583 900.191 81.3195 900.191 84.8491C900.191 88.3786 903.051 91.2398 906.579 91.2398Z" fill="url(#paint75_radial_2508_114)"/>
<path d="M927.636 84.8491C927.636 88.3786 924.776 91.2398 921.248 91.2398C917.72 91.2398 914.86 88.3786 914.86 84.8491C914.86 81.3195 917.72 78.4583 921.248 78.4583C924.776 78.4583 927.636 81.3195 927.636 84.8491Z" fill="url(#paint76_radial_2508_114)"/>
<path d="M935.918 91.2398C939.445 91.2398 942.305 88.3786 942.305 84.8491C942.305 81.3195 939.445 78.4583 935.918 78.4583C932.39 78.4583 929.53 81.3195 929.53 84.8491C929.53 88.3786 932.39 91.2398 935.918 91.2398Z" fill="url(#paint77_radial_2508_114)"/>
<path d="M956.975 84.8491C956.975 88.3786 954.115 91.2398 950.587 91.2398C947.059 91.2398 944.199 88.3786 944.199 84.8491C944.199 81.3195 947.059 78.4583 950.587 78.4583C954.115 78.4583 956.975 81.3195 956.975 84.8491Z" fill="url(#paint78_radial_2508_114)"/>
<path d="M965.256 91.2398C968.784 91.2398 971.644 88.3786 971.644 84.8491C971.644 81.3195 968.784 78.4583 965.256 78.4583C961.729 78.4583 958.869 81.3195 958.869 84.8491C958.869 88.3786 961.729 91.2398 965.256 91.2398Z" fill="url(#paint79_radial_2508_114)"/>
<path d="M986.314 84.8491C986.314 88.3786 983.454 91.2398 979.926 91.2398C976.398 91.2398 973.538 88.3786 973.538 84.8491C973.538 81.3195 976.398 78.4583 979.926 78.4583C983.454 78.4583 986.314 81.3195 986.314 84.8491Z" fill="url(#paint80_radial_2508_114)"/>
<path d="M994.595 91.2398C998.123 91.2398 1000.98 88.3786 1000.98 84.8491C1000.98 81.3195 998.123 78.4583 994.595 78.4583C991.068 78.4583 988.208 81.3195 988.208 84.8491C988.208 88.3786 991.068 91.2398 994.595 91.2398Z" fill="url(#paint81_radial_2508_114)"/>
<path d="M1015.65 84.8491C1015.65 88.3786 1012.79 91.2398 1009.27 91.2398C1005.74 91.2398 1002.88 88.3786 1002.88 84.8491C1002.88 81.3195 1005.74 78.4583 1009.27 78.4583C1012.79 78.4583 1015.65 81.3195 1015.65 84.8491Z" fill="url(#paint82_radial_2508_114)"/>
<path d="M1023.93 91.2398C1027.45 91.2398 1030.31 88.3786 1030.31 84.8491C1030.31 81.3195 1027.45 78.4583 1023.93 78.4583C1020.4 78.4583 1017.54 81.3195 1017.54 84.8491C1017.54 88.3786 1020.4 91.2398 1023.93 91.2398Z" fill="url(#paint83_radial_2508_114)"/>
<path d="M906.579 72.8431C910.106 72.8431 912.966 69.9818 912.966 66.4523C912.966 62.9227 910.106 60.0615 906.579 60.0615C903.051 60.0615 900.191 62.9227 900.191 66.4523C900.191 69.9818 903.051 72.8431 906.579 72.8431Z" fill="url(#paint84_radial_2508_114)"/>
<path d="M927.636 66.4523C927.636 69.9818 924.776 72.8431 921.248 72.8431C917.72 72.8431 914.86 69.9818 914.86 66.4523C914.86 62.9227 917.72 60.0615 921.248 60.0615C924.776 60.0615 927.636 62.9227 927.636 66.4523Z" fill="url(#paint85_radial_2508_114)"/>
<path d="M935.918 72.8431C939.445 72.8431 942.305 69.9818 942.305 66.4523C942.305 62.9227 939.445 60.0615 935.918 60.0615C932.39 60.0615 929.53 62.9227 929.53 66.4523C929.53 69.9818 932.39 72.8431 935.918 72.8431Z" fill="url(#paint86_radial_2508_114)"/>
<path d="M956.975 66.4523C956.975 69.9818 954.115 72.8431 950.587 72.8431C947.059 72.8431 944.199 69.9818 944.199 66.4523C944.199 62.9227 947.059 60.0615 950.587 60.0615C954.115 60.0615 956.975 62.9227 956.975 66.4523Z" fill="url(#paint87_radial_2508_114)"/>
<path d="M965.256 72.8431C968.784 72.8431 971.644 69.9818 971.644 66.4523C971.644 62.9227 968.784 60.0615 965.256 60.0615C961.729 60.0615 958.869 62.9227 958.869 66.4523C958.869 69.9818 961.729 72.8431 965.256 72.8431Z" fill="url(#paint88_radial_2508_114)"/>
<path d="M986.314 66.4523C986.314 69.9818 983.454 72.8431 979.926 72.8431C976.398 72.8431 973.538 69.9818 973.538 66.4523C973.538 62.9227 976.398 60.0615 979.926 60.0615C983.454 60.0615 986.314 62.9227 986.314 66.4523Z" fill="url(#paint89_radial_2508_114)"/>
<path d="M994.595 72.8431C998.123 72.8431 1000.98 69.9818 1000.98 66.4523C1000.98 62.9227 998.123 60.0615 994.595 60.0615C991.068 60.0615 988.208 62.9227 988.208 66.4523C988.208 69.9818 991.068 72.8431 994.595 72.8431Z" fill="url(#paint90_radial_2508_114)"/>
<path d="M1015.65 66.4523C1015.65 69.9818 1012.79 72.8431 1009.27 72.8431C1005.74 72.8431 1002.88 69.9818 1002.88 66.4523C1002.88 62.9227 1005.74 60.0615 1009.27 60.0615C1012.79 60.0615 1015.65 62.9227 1015.65 66.4523Z" fill="url(#paint91_radial_2508_114)"/>
<path d="M1023.93 72.8431C1027.45 72.8431 1030.31 69.9818 1030.31 66.4523C1030.31 62.9227 1027.45 60.0615 1023.93 60.0615C1020.4 60.0615 1017.54 62.9227 1017.54 66.4523C1017.54 69.9818 1020.4 72.8431 1023.93 72.8431Z" fill="url(#paint92_radial_2508_114)"/>
<path d="M906.579 54.4425C910.106 54.4425 912.966 51.5812 912.966 48.0517C912.966 44.5222 910.106 41.6609 906.579 41.6609C903.051 41.6609 900.191 44.5222 900.191 48.0517C900.191 51.5812 903.051 54.4425 906.579 54.4425Z" fill="url(#paint93_radial_2508_114)"/>
<path d="M927.636 48.0517C927.636 51.5812 924.776 54.4425 921.248 54.4425C917.72 54.4425 914.86 51.5812 914.86 48.0517C914.86 44.5222 917.72 41.6609 921.248 41.6609C924.776 41.6609 927.636 44.5222 927.636 48.0517Z" fill="url(#paint94_radial_2508_114)"/>
<path d="M935.918 54.4425C939.445 54.4425 942.305 51.5812 942.305 48.0517C942.305 44.5222 939.445 41.6609 935.918 41.6609C932.39 41.6609 929.53 44.5222 929.53 48.0517C929.53 51.5812 932.39 54.4425 935.918 54.4425Z" fill="url(#paint95_radial_2508_114)"/>
<path d="M956.975 48.0517C956.975 51.5812 954.115 54.4425 950.587 54.4425C947.059 54.4425 944.199 51.5812 944.199 48.0517C944.199 44.5222 947.059 41.6609 950.587 41.6609C954.115 41.6609 956.975 44.5222 956.975 48.0517Z" fill="url(#paint96_radial_2508_114)"/>
<path d="M965.256 54.4425C968.784 54.4425 971.644 51.5812 971.644 48.0517C971.644 44.5222 968.784 41.6609 965.256 41.6609C961.729 41.6609 958.869 44.5222 958.869 48.0517C958.869 51.5812 961.729 54.4425 965.256 54.4425Z" fill="url(#paint97_radial_2508_114)"/>
<path d="M986.314 48.0517C986.314 51.5812 983.454 54.4425 979.926 54.4425C976.398 54.4425 973.538 51.5812 973.538 48.0517C973.538 44.5222 976.398 41.6609 979.926 41.6609C983.454 41.6609 986.314 44.5222 986.314 48.0517Z" fill="url(#paint98_radial_2508_114)"/>
<path d="M994.595 54.4425C998.123 54.4425 1000.98 51.5812 1000.98 48.0517C1000.98 44.5222 998.123 41.6609 994.595 41.6609C991.068 41.6609 988.208 44.5222 988.208 48.0517C988.208 51.5812 991.068 54.4425 994.595 54.4425Z" fill="url(#paint99_radial_2508_114)"/>
<path d="M1015.65 48.0517C1015.65 51.5812 1012.79 54.4425 1009.27 54.4425C1005.74 54.4425 1002.88 51.5812 1002.88 48.0517C1002.88 44.5222 1005.74 41.6609 1009.27 41.6609C1012.79 41.6609 1015.65 44.5222 1015.65 48.0517Z" fill="url(#paint100_radial_2508_114)"/>
<path d="M1023.93 54.4425C1027.45 54.4425 1030.31 51.5812 1030.31 48.0517C1030.31 44.5222 1027.45 41.6609 1023.93 41.6609C1020.4 41.6609 1017.54 44.5222 1017.54 48.0517C1017.54 51.5812 1020.4 54.4425 1023.93 54.4425Z" fill="url(#paint101_radial_2508_114)"/>
<path d="M906.579 36.0457C910.106 36.0457 912.966 33.1845 912.966 29.6549C912.966 26.1254 910.106 23.2641 906.579 23.2641C903.051 23.2641 900.191 26.1254 900.191 29.6549C900.191 33.1845 903.051 36.0457 906.579 36.0457Z" fill="url(#paint102_radial_2508_114)"/>
<path d="M927.636 29.6549C927.636 33.1845 924.776 36.0457 921.248 36.0457C917.72 36.0457 914.86 33.1845 914.86 29.6549C914.86 26.1254 917.72 23.2641 921.248 23.2641C924.776 23.2641 927.636 26.1254 927.636 29.6549Z" fill="url(#paint103_radial_2508_114)"/>
<path d="M935.918 36.0457C939.445 36.0457 942.305 33.1845 942.305 29.6549C942.305 26.1254 939.445 23.2641 935.918 23.2641C932.39 23.2641 929.53 26.1254 929.53 29.6549C929.53 33.1845 932.39 36.0457 935.918 36.0457Z" fill="url(#paint104_radial_2508_114)"/>
<path d="M956.975 29.6549C956.975 33.1845 954.115 36.0457 950.587 36.0457C947.059 36.0457 944.199 33.1845 944.199 29.6549C944.199 26.1254 947.059 23.2641 950.587 23.2641C954.115 23.2641 956.975 26.1254 956.975 29.6549Z" fill="url(#paint105_radial_2508_114)"/>
<path d="M965.256 36.0457C968.784 36.0457 971.644 33.1845 971.644 29.6549C971.644 26.1254 968.784 23.2641 965.256 23.2641C961.729 23.2641 958.869 26.1254 958.869 29.6549C958.869 33.1845 961.729 36.0457 965.256 36.0457Z" fill="url(#paint106_radial_2508_114)"/>
<path d="M986.314 29.6549C986.314 33.1845 983.454 36.0457 979.926 36.0457C976.398 36.0457 973.538 33.1845 973.538 29.6549C973.538 26.1254 976.398 23.2641 979.926 23.2641C983.454 23.2641 986.314 26.1254 986.314 29.6549Z" fill="url(#paint107_radial_2508_114)"/>
<path d="M994.595 36.0457C998.123 36.0457 1000.98 33.1845 1000.98 29.6549C1000.98 26.1254 998.123 23.2641 994.595 23.2641C991.068 23.2641 988.208 26.1254 988.208 29.6549C988.208 33.1845 991.068 36.0457 994.595 36.0457Z" fill="url(#paint108_radial_2508_114)"/>
<path d="M1015.65 29.6549C1015.65 33.1845 1012.79 36.0457 1009.27 36.0457C1005.74 36.0457 1002.88 33.1845 1002.88 29.6549C1002.88 26.1254 1005.74 23.2641 1009.27 23.2641C1012.79 23.2641 1015.65 26.1254 1015.65 29.6549Z" fill="url(#paint109_radial_2508_114)"/>
<path d="M1023.93 36.0457C1027.45 36.0457 1030.31 33.1845 1030.31 29.6549C1030.31 26.1254 1027.45 23.2641 1023.93 23.2641C1020.4 23.2641 1017.54 26.1254 1017.54 29.6549C1017.54 33.1845 1020.4 36.0457 1023.93 36.0457Z" fill="url(#paint110_radial_2508_114)"/>
<path d="M906.579 17.6489C910.106 17.6489 912.966 14.7877 912.966 11.2582C912.966 7.72862 910.106 4.86737 906.579 4.86737C903.051 4.86737 900.191 7.72862 900.191 11.2582C900.191 14.7877 903.051 17.6489 906.579 17.6489Z" fill="url(#paint111_radial_2508_114)"/>
<path d="M927.636 11.2582C927.636 14.7877 924.776 17.6489 921.248 17.6489C917.72 17.6489 914.86 14.7877 914.86 11.2582C914.86 7.72862 917.72 4.86737 921.248 4.86737C924.776 4.86737 927.636 7.72862 927.636 11.2582Z" fill="url(#paint112_radial_2508_114)"/>
<path d="M935.918 17.6489C939.445 17.6489 942.305 14.7877 942.305 11.2582C942.305 7.72862 939.445 4.86737 935.918 4.86737C932.39 4.86737 929.53 7.72862 929.53 11.2582C929.53 14.7877 932.39 17.6489 935.918 17.6489Z" fill="url(#paint113_radial_2508_114)"/>
<path d="M956.975 11.2582C956.975 14.7877 954.115 17.6489 950.587 17.6489C947.059 17.6489 944.199 14.7877 944.199 11.2582C944.199 7.72862 947.059 4.86737 950.587 4.86737C954.115 4.86737 956.975 7.72862 956.975 11.2582Z" fill="url(#paint114_radial_2508_114)"/>
<path d="M965.256 17.6489C968.784 17.6489 971.644 14.7877 971.644 11.2582C971.644 7.72862 968.784 4.86737 965.256 4.86737C961.729 4.86737 958.869 7.72862 958.869 11.2582C958.869 14.7877 961.729 17.6489 965.256 17.6489Z" fill="url(#paint115_radial_2508_114)"/>
<path d="M986.314 11.2582C986.314 14.7877 983.454 17.6489 979.926 17.6489C976.398 17.6489 973.538 14.7877 973.538 11.2582C973.538 7.72862 976.398 4.86737 979.926 4.86737C983.454 4.86737 986.314 7.72862 986.314 11.2582Z" fill="url(#paint116_radial_2508_114)"/>
<path d="M994.595 17.6489C998.123 17.6489 1000.98 14.7877 1000.98 11.2582C1000.98 7.72862 998.123 4.86737 994.595 4.86737C991.068 4.86737 988.208 7.72862 988.208 11.2582C988.208 14.7877 991.068 17.6489 994.595 17.6489Z" fill="url(#paint117_radial_2508_114)"/>
<path d="M1015.65 11.2582C1015.65 14.7877 1012.79 17.6489 1009.27 17.6489C1005.74 17.6489 1002.88 14.7877 1002.88 11.2582C1002.88 7.72862 1005.74 4.86737 1009.27 4.86737C1012.79 4.86737 1015.65 7.72862 1015.65 11.2582Z" fill="url(#paint118_radial_2508_114)"/>
<path d="M1023.93 17.6489C1027.45 17.6489 1030.31 14.7877 1030.31 11.2582C1030.31 7.72862 1027.45 4.86737 1023.93 4.86737C1020.4 4.86737 1017.54 7.72862 1017.54 11.2582C1017.54 14.7877 1020.4 17.6489 1023.93 17.6489Z" fill="url(#paint119_radial_2508_114)"/>
<path d="M403.12 103.88V99.288H413.704C415.16 99.288 416.448 98.9893 417.568 98.392C418.725 97.7947 419.621 96.9547 420.256 95.872C420.928 94.7893 421.264 93.5013 421.264 92.008C421.264 90.5147 420.928 89.2267 420.256 88.144C419.621 87.0613 418.725 86.2213 417.568 85.624C416.448 85.0267 415.16 84.728 413.704 84.728H403.12V80.136H414.04C416.429 80.136 418.557 80.6213 420.424 81.592C422.328 82.5627 423.821 83.944 424.904 85.736C426.024 87.4907 426.584 89.5813 426.584 92.008C426.584 94.3973 426.024 96.488 424.904 98.28C423.821 100.035 422.328 101.416 420.424 102.424C418.557 103.395 416.429 103.88 414.04 103.88H403.12ZM399.592 119V80.136H404.856V119H399.592ZM429.913 119V92.4H434.953V119H429.913ZM432.433 87.08C431.5 87.08 430.734 86.7813 430.137 86.184C429.54 85.5493 429.241 84.7653 429.241 83.832C429.241 82.936 429.54 82.1893 430.137 81.592C430.734 80.9573 431.5 80.64 432.433 80.64C433.366 80.64 434.132 80.9573 434.729 81.592C435.326 82.1893 435.625 82.936 435.625 83.832C435.625 84.7653 435.326 85.5493 434.729 86.184C434.132 86.7813 433.366 87.08 432.433 87.08ZM458.396 119V103.488C458.396 101.472 457.762 99.8107 456.492 98.504C455.223 97.1973 453.58 96.544 451.564 96.544C450.22 96.544 449.026 96.8427 447.98 97.44C446.935 98.0373 446.114 98.8587 445.516 99.904C444.919 100.949 444.62 102.144 444.62 103.488L442.548 102.312C442.548 100.296 442.996 98.504 443.892 96.936C444.788 95.368 446.039 94.136 447.644 93.24C449.25 92.3067 451.06 91.84 453.076 91.84C455.092 91.84 456.866 92.344 458.396 93.352C459.964 94.36 461.196 95.6853 462.092 97.328C462.988 98.9333 463.436 100.651 463.436 102.48V119H458.396ZM439.58 119V92.4H444.62V119H439.58ZM478.492 130.704C475.767 130.704 473.34 130.2 471.212 129.192C469.121 128.184 467.441 126.765 466.172 124.936L469.42 121.632C470.503 123.013 471.791 124.059 473.284 124.768C474.777 125.515 476.551 125.888 478.604 125.888C481.329 125.888 483.476 125.16 485.044 123.704C486.649 122.285 487.452 120.363 487.452 117.936V111.328L488.348 105.336L487.452 99.4V92.4H492.492V117.936C492.492 120.475 491.895 122.696 490.7 124.6C489.543 126.504 487.9 127.997 485.772 129.08C483.681 130.163 481.255 130.704 478.492 130.704ZM478.492 118.552C476.065 118.552 473.881 117.973 471.94 116.816C470.036 115.659 468.524 114.072 467.404 112.056C466.284 110.003 465.724 107.707 465.724 105.168C465.724 102.629 466.284 100.371 467.404 98.392C468.524 96.376 470.036 94.7893 471.94 93.632C473.881 92.4373 476.065 91.84 478.492 91.84C480.583 91.84 482.431 92.2507 484.036 93.072C485.641 93.8933 486.911 95.0507 487.844 96.544C488.815 98 489.337 99.7173 489.412 101.696V108.752C489.3 110.693 488.759 112.411 487.788 113.904C486.855 115.36 485.585 116.499 483.98 117.32C482.375 118.141 480.545 118.552 478.492 118.552ZM479.5 113.792C481.143 113.792 482.58 113.437 483.812 112.728C485.081 112.019 486.052 111.029 486.724 109.76C487.396 108.453 487.732 106.941 487.732 105.224C487.732 103.507 487.377 102.013 486.668 100.744C485.996 99.4373 485.044 98.4293 483.812 97.72C482.58 96.9733 481.124 96.6 479.444 96.6C477.764 96.6 476.289 96.9733 475.02 97.72C473.751 98.4293 472.743 99.4373 471.996 100.744C471.287 102.013 470.932 103.488 470.932 105.168C470.932 106.848 471.287 108.341 471.996 109.648C472.743 110.955 473.751 111.981 475.02 112.728C476.327 113.437 477.82 113.792 479.5 113.792ZM526.099 119.56C523.672 119.56 521.469 118.963 519.491 117.768C517.512 116.536 515.944 114.875 514.787 112.784C513.667 110.693 513.107 108.341 513.107 105.728C513.107 103.115 513.667 100.763 514.787 98.672C515.944 96.5813 517.493 94.92 519.435 93.688C521.413 92.456 523.635 91.84 526.099 91.84C528.115 91.84 529.907 92.2693 531.475 93.128C533.08 93.9493 534.368 95.1067 535.339 96.6C536.309 98.056 536.851 99.7547 536.963 101.696V109.704C536.851 111.608 536.309 113.307 535.339 114.8C534.405 116.293 533.136 117.469 531.531 118.328C529.963 119.149 528.152 119.56 526.099 119.56ZM526.939 114.8C529.44 114.8 531.456 113.96 532.987 112.28C534.517 110.563 535.283 108.379 535.283 105.728C535.283 103.899 534.928 102.312 534.219 100.968C533.547 99.5867 532.576 98.5227 531.307 97.776C530.037 96.992 528.563 96.6 526.883 96.6C525.203 96.6 523.709 96.992 522.403 97.776C521.133 98.56 520.125 99.6427 519.379 101.024C518.669 102.368 518.315 103.917 518.315 105.672C518.315 107.464 518.669 109.051 519.379 110.432C520.125 111.776 521.152 112.84 522.459 113.624C523.765 114.408 525.259 114.8 526.939 114.8ZM534.947 119V111.832L535.899 105.336L534.947 98.896V92.4H540.043V119H534.947ZM562.277 119V92.4H567.317V119H562.277ZM580.253 119V102.928C580.253 100.949 579.637 99.4 578.405 98.28C577.211 97.1227 575.699 96.544 573.869 96.544C572.637 96.544 571.536 96.8053 570.565 97.328C569.595 97.8507 568.811 98.5787 568.213 99.512C567.616 100.445 567.317 101.565 567.317 102.872L565.245 101.864C565.245 99.848 565.675 98.0933 566.533 96.6C567.429 95.1067 568.643 93.9493 570.173 93.128C571.704 92.2693 573.421 91.84 575.325 91.84C577.192 91.84 578.872 92.2507 580.365 93.072C581.896 93.8933 583.091 95.0507 583.949 96.544C584.845 98.0373 585.293 99.8107 585.293 101.864V119H580.253ZM598.229 119V102.928C598.229 100.949 597.613 99.4 596.381 98.28C595.187 97.1227 593.693 96.544 591.901 96.544C590.669 96.544 589.549 96.8053 588.541 97.328C587.571 97.8507 586.787 98.5787 586.189 99.512C585.592 100.445 585.293 101.565 585.293 102.872L582.437 101.864C582.549 99.8107 583.091 98.056 584.061 96.6C585.069 95.1067 586.357 93.9493 587.925 93.128C589.493 92.2693 591.211 91.84 593.077 91.84C595.019 91.84 596.755 92.2507 598.285 93.072C599.816 93.8933 601.029 95.0507 601.925 96.544C602.859 98.0373 603.325 99.8293 603.325 101.92V119H598.229ZM619.704 119.56C617.053 119.56 614.664 118.963 612.536 117.768C610.408 116.536 608.728 114.875 607.496 112.784C606.264 110.693 605.648 108.323 605.648 105.672C605.648 103.059 606.245 100.707 607.44 98.616C608.672 96.5253 610.314 94.8827 612.368 93.688C614.458 92.456 616.792 91.84 619.368 91.84C621.832 91.84 623.997 92.4 625.864 93.52C627.768 94.64 629.242 96.1893 630.288 98.168C631.37 100.147 631.912 102.387 631.912 104.888C631.912 105.261 631.893 105.672 631.856 106.12C631.818 106.531 631.744 107.016 631.632 107.576H609.176V103.376H628.944L627.096 105C627.096 103.208 626.778 101.696 626.144 100.464C625.509 99.1947 624.613 98.224 623.456 97.552C622.298 96.8427 620.898 96.488 619.256 96.488C617.538 96.488 616.026 96.8613 614.72 97.608C613.413 98.3547 612.405 99.4 611.696 100.744C610.986 102.088 610.632 103.675 610.632 105.504C610.632 107.371 611.005 109.013 611.752 110.432C612.498 111.813 613.562 112.896 614.944 113.68C616.325 114.427 617.912 114.8 619.704 114.8C621.197 114.8 622.56 114.539 623.792 114.016C625.061 113.493 626.144 112.709 627.04 111.664L630.288 114.968C629.018 116.461 627.45 117.6 625.584 118.384C623.754 119.168 621.794 119.56 619.704 119.56ZM643.063 119.56C641.57 119.56 640.151 119.373 638.807 119C637.5 118.589 636.287 118.029 635.167 117.32C634.047 116.573 633.076 115.696 632.255 114.688L635.503 111.44C636.474 112.635 637.594 113.531 638.863 114.128C640.132 114.688 641.551 114.968 643.119 114.968C644.687 114.968 645.9 114.707 646.759 114.184C647.618 113.624 648.047 112.859 648.047 111.888C648.047 110.917 647.692 110.171 646.983 109.648C646.311 109.088 645.434 108.64 644.351 108.304C643.268 107.931 642.111 107.576 640.879 107.24C639.684 106.867 638.546 106.4 637.463 105.84C636.38 105.28 635.484 104.515 634.775 103.544C634.103 102.573 633.767 101.285 633.767 99.68C633.767 98.0747 634.159 96.6933 634.943 95.536C635.727 94.3413 636.81 93.4267 638.191 92.792C639.61 92.1573 641.308 91.84 643.287 91.84C645.378 91.84 647.226 92.2133 648.831 92.96C650.474 93.6693 651.818 94.752 652.863 96.208L649.615 99.456C648.868 98.4853 647.935 97.7387 646.815 97.216C645.732 96.6933 644.5 96.432 643.119 96.432C641.663 96.432 640.543 96.6933 639.759 97.216C639.012 97.7013 638.639 98.392 638.639 99.288C638.639 100.184 638.975 100.875 639.647 101.36C640.319 101.845 641.196 102.256 642.279 102.592C643.399 102.928 644.556 103.283 645.751 103.656C646.946 103.992 648.084 104.459 649.167 105.056C650.25 105.653 651.127 106.456 651.799 107.464C652.508 108.472 652.863 109.797 652.863 111.44C652.863 113.941 651.967 115.92 650.175 117.376C648.42 118.832 646.05 119.56 643.063 119.56ZM664.161 119.56C662.668 119.56 661.249 119.373 659.905 119C658.599 118.589 657.385 118.029 656.265 117.32C655.145 116.573 654.175 115.696 653.353 114.688L656.601 111.44C657.572 112.635 658.692 113.531 659.961 114.128C661.231 114.688 662.649 114.968 664.217 114.968C665.785 114.968 666.999 114.707 667.857 114.184C668.716 113.624 669.145 112.859 669.145 111.888C669.145 110.917 668.791 110.171 668.081 109.648C667.409 109.088 666.532 108.64 665.449 108.304C664.367 107.931 663.209 107.576 661.977 107.24C660.783 106.867 659.644 106.4 658.561 105.84C657.479 105.28 656.583 104.515 655.873 103.544C655.201 102.573 654.865 101.285 654.865 99.68C654.865 98.0747 655.257 96.6933 656.041 95.536C656.825 94.3413 657.908 93.4267 659.289 92.792C660.708 92.1573 662.407 91.84 664.385 91.84C666.476 91.84 668.324 92.2133 669.929 92.96C671.572 93.6693 672.916 94.752 673.961 96.208L670.713 99.456C669.967 98.4853 669.033 97.7387 667.913 97.216C666.831 96.6933 665.599 96.432 664.217 96.432C662.761 96.432 661.641 96.6933 660.857 97.216C660.111 97.7013 659.737 98.392 659.737 99.288C659.737 100.184 660.073 100.875 660.745 101.36C661.417 101.845 662.295 102.256 663.377 102.592C664.497 102.928 665.655 103.283 666.849 103.656C668.044 103.992 669.183 104.459 670.265 105.056C671.348 105.653 672.225 106.456 672.897 107.464C673.607 108.472 673.961 109.797 673.961 111.44C673.961 113.941 673.065 115.92 671.273 117.376C669.519 118.832 667.148 119.56 664.161 119.56ZM688.116 119.56C685.689 119.56 683.486 118.963 681.508 117.768C679.529 116.536 677.961 114.875 676.804 112.784C675.684 110.693 675.124 108.341 675.124 105.728C675.124 103.115 675.684 100.763 676.804 98.672C677.961 96.5813 679.51 94.92 681.452 93.688C683.43 92.456 685.652 91.84 688.116 91.84C690.132 91.84 691.924 92.2693 693.492 93.128C695.097 93.9493 696.385 95.1067 697.356 96.6C698.326 98.056 698.868 99.7547 698.98 101.696V109.704C698.868 111.608 698.326 113.307 697.356 114.8C696.422 116.293 695.153 117.469 693.548 118.328C691.98 119.149 690.169 119.56 688.116 119.56ZM688.956 114.8C691.457 114.8 693.473 113.96 695.004 112.28C696.534 110.563 697.3 108.379 697.3 105.728C697.3 103.899 696.945 102.312 696.236 100.968C695.564 99.5867 694.593 98.5227 693.324 97.776C692.054 96.992 690.58 96.6 688.9 96.6C687.22 96.6 685.726 96.992 684.42 97.776C683.15 98.56 682.142 99.6427 681.396 101.024C680.686 102.368 680.332 103.917 680.332 105.672C680.332 107.464 680.686 109.051 681.396 110.432C682.142 111.776 683.169 112.84 684.476 113.624C685.782 114.408 687.276 114.8 688.956 114.8ZM696.964 119V111.832L697.916 105.336L696.964 98.896V92.4H702.06V119H696.964ZM717.63 130.704C714.904 130.704 712.478 130.2 710.35 129.192C708.259 128.184 706.579 126.765 705.31 124.936L708.558 121.632C709.64 123.013 710.928 124.059 712.422 124.768C713.915 125.515 715.688 125.888 717.742 125.888C720.467 125.888 722.614 125.16 724.182 123.704C725.787 122.285 726.59 120.363 726.59 117.936V111.328L727.486 105.336L726.59 99.4V92.4H731.63V117.936C731.63 120.475 731.032 122.696 729.838 124.6C728.68 126.504 727.038 127.997 724.91 129.08C722.819 130.163 720.392 130.704 717.63 130.704ZM717.63 118.552C715.203 118.552 713.019 117.973 711.078 116.816C709.174 115.659 707.662 114.072 706.542 112.056C705.422 110.003 704.862 107.707 704.862 105.168C704.862 102.629 705.422 100.371 706.542 98.392C707.662 96.376 709.174 94.7893 711.078 93.632C713.019 92.4373 715.203 91.84 717.63 91.84C719.72 91.84 721.568 92.2507 723.174 93.072C724.779 93.8933 726.048 95.0507 726.982 96.544C727.952 98 728.475 99.7173 728.55 101.696V108.752C728.438 110.693 727.896 112.411 726.926 113.904C725.992 115.36 724.723 116.499 723.118 117.32C721.512 118.141 719.683 118.552 717.63 118.552ZM718.638 113.792C720.28 113.792 721.718 113.437 722.95 112.728C724.219 112.019 725.19 111.029 725.862 109.76C726.534 108.453 726.87 106.941 726.87 105.224C726.87 103.507 726.515 102.013 725.806 100.744C725.134 99.4373 724.182 98.4293 722.95 97.72C721.718 96.9733 720.262 96.6 718.582 96.6C716.902 96.6 715.427 96.9733 714.158 97.72C712.888 98.4293 711.88 99.4373 711.134 100.744C710.424 102.013 710.07 103.488 710.07 105.168C710.07 106.848 710.424 108.341 711.134 109.648C711.88 110.955 712.888 111.981 714.158 112.728C715.464 113.437 716.958 113.792 718.638 113.792ZM748.547 119.56C745.897 119.56 743.507 118.963 741.379 117.768C739.251 116.536 737.571 114.875 736.339 112.784C735.107 110.693 734.491 108.323 734.491 105.672C734.491 103.059 735.089 100.707 736.283 98.616C737.515 96.5253 739.158 94.8827 741.211 93.688C743.302 92.456 745.635 91.84 748.211 91.84C750.675 91.84 752.841 92.4 754.707 93.52C756.611 94.64 758.086 96.1893 759.131 98.168C760.214 100.147 760.755 102.387 760.755 104.888C760.755 105.261 760.737 105.672 760.699 106.12C760.662 106.531 760.587 107.016 760.475 107.576H738.019V103.376H757.787L755.939 105C755.939 103.208 755.622 101.696 754.987 100.464C754.353 99.1947 753.457 98.224 752.299 97.552C751.142 96.8427 749.742 96.488 748.099 96.488C746.382 96.488 744.87 96.8613 743.563 97.608C742.257 98.3547 741.249 99.4 740.539 100.744C739.83 102.088 739.475 103.675 739.475 105.504C739.475 107.371 739.849 109.013 740.595 110.432C741.342 111.813 742.406 112.896 743.787 113.68C745.169 114.427 746.755 114.8 748.547 114.8C750.041 114.8 751.403 114.539 752.635 114.016C753.905 113.493 754.987 112.709 755.883 111.664L759.131 114.968C757.862 116.461 756.294 117.6 754.427 118.384C752.598 119.168 750.638 119.56 748.547 119.56Z" fill="black"/>
</g>
<defs>
<linearGradient id="paint0_linear_2508_114" x1="235.458" y1="109.637" x2="92.3666" y2="223.961" gradientUnits="userSpaceOnUse">
<stop offset="0.195" stop-color="#33CCEB"/>
<stop offset="0.325" stop-color="#FFC73C"/>
<stop offset="0.44" stop-color="#EB5233"/>
</linearGradient>
<linearGradient id="paint1_linear_2508_114" x1="235.458" y1="109.637" x2="92.3666" y2="223.961" gradientUnits="userSpaceOnUse">
<stop offset="0.195" stop-color="#33CCEB"/>
<stop offset="0.325" stop-color="#FFC73C"/>
<stop offset="0.44" stop-color="#EB5233"/>
</linearGradient>
<linearGradient id="paint2_linear_2508_114" x1="235.458" y1="109.637" x2="92.3666" y2="223.961" gradientUnits="userSpaceOnUse">
<stop offset="0.195" stop-color="#33CCEB"/>
<stop offset="0.325" stop-color="#FFC73C"/>
<stop offset="0.44" stop-color="#EB5233"/>
</linearGradient>
<linearGradient id="paint3_linear_2508_114" x1="235.458" y1="109.637" x2="92.3666" y2="223.961" gradientUnits="userSpaceOnUse">
<stop offset="0.195" stop-color="#33CCEB"/>
<stop offset="0.325" stop-color="#FFC73C"/>
<stop offset="0.44" stop-color="#EB5233"/>
</linearGradient>
<linearGradient id="paint4_linear_2508_114" x1="235.458" y1="109.637" x2="92.3666" y2="223.961" gradientUnits="userSpaceOnUse">
<stop offset="0.195" stop-color="#33CCEB"/>
<stop offset="0.325" stop-color="#FFC73C"/>
<stop offset="0.44" stop-color="#EB5233"/>
</linearGradient>
<linearGradient id="paint5_linear_2508_114" x1="235.458" y1="109.637" x2="92.3666" y2="223.961" gradientUnits="userSpaceOnUse">
<stop offset="0.195" stop-color="#33CCEB"/>
<stop offset="0.325" stop-color="#FFC73C"/>
<stop offset="0.44" stop-color="#EB5233"/>
</linearGradient>
<linearGradient id="paint6_linear_2508_114" x1="235.458" y1="109.637" x2="92.3666" y2="223.961" gradientUnits="userSpaceOnUse">
<stop offset="0.195" stop-color="#33CCEB"/>
<stop offset="0.325" stop-color="#FFC73C"/>
<stop offset="0.44" stop-color="#EB5233"/>
</linearGradient>
<linearGradient id="paint7_linear_2508_114" x1="235.458" y1="109.637" x2="92.3666" y2="223.961" gradientUnits="userSpaceOnUse">
<stop offset="0.195" stop-color="#33CCEB"/>
<stop offset="0.325" stop-color="#FFC73C"/>
<stop offset="0.44" stop-color="#EB5233"/>
</linearGradient>
<linearGradient id="paint8_linear_2508_114" x1="235.458" y1="109.637" x2="92.3666" y2="223.961" gradientUnits="userSpaceOnUse">
<stop offset="0.195" stop-color="#33CCEB"/>
<stop offset="0.325" stop-color="#FFC73C"/>
<stop offset="0.44" stop-color="#EB5233"/>
</linearGradient>
<linearGradient id="paint9_linear_2508_114" x1="235.458" y1="109.637" x2="92.3666" y2="223.961" gradientUnits="userSpaceOnUse">
<stop offset="0.195" stop-color="#33CCEB"/>
<stop offset="0.325" stop-color="#FFC73C"/>
<stop offset="0.44" stop-color="#EB5233"/>
</linearGradient>
<linearGradient id="paint10_linear_2508_114" x1="235.458" y1="109.637" x2="92.3666" y2="223.961" gradientUnits="userSpaceOnUse">
<stop offset="0.195" stop-color="#33CCEB"/>
<stop offset="0.325" stop-color="#FFC73C"/>
<stop offset="0.44" stop-color="#EB5233"/>
</linearGradient>
<linearGradient id="paint11_linear_2508_114" x1="235.458" y1="109.637" x2="92.3666" y2="223.961" gradientUnits="userSpaceOnUse">
<stop offset="0.195" stop-color="#33CCEB"/>
<stop offset="0.325" stop-color="#FFC73C"/>
<stop offset="0.44" stop-color="#EB5233"/>
</linearGradient>
<linearGradient id="paint12_linear_2508_114" x1="235.458" y1="109.637" x2="92.3666" y2="223.961" gradientUnits="userSpaceOnUse">
<stop offset="0.195" stop-color="#33CCEB"/>
<stop offset="0.325" stop-color="#FFC73C"/>
<stop offset="0.44" stop-color="#EB5233"/>
</linearGradient>
<linearGradient id="paint13_linear_2508_114" x1="235.458" y1="109.637" x2="92.3666" y2="223.961" gradientUnits="userSpaceOnUse">
<stop offset="0.195" stop-color="#33CCEB"/>
<stop offset="0.325" stop-color="#FFC73C"/>
<stop offset="0.44" stop-color="#EB5233"/>
</linearGradient>
<linearGradient id="paint14_linear_2508_114" x1="235.458" y1="109.637" x2="92.3666" y2="223.961" gradientUnits="userSpaceOnUse">
<stop offset="0.195" stop-color="#33CCEB"/>
<stop offset="0.325" stop-color="#FFC73C"/>
<stop offset="0.44" stop-color="#EB5233"/>
</linearGradient>
<linearGradient id="paint15_linear_2508_114" x1="235.458" y1="109.637" x2="92.3666" y2="223.961" gradientUnits="userSpaceOnUse">
<stop offset="0.195" stop-color="#33CCEB"/>
<stop offset="0.325" stop-color="#FFC73C"/>
<stop offset="0.44" stop-color="#EB5233"/>
</linearGradient>
<linearGradient id="paint16_linear_2508_114" x1="235.458" y1="109.637" x2="92.3666" y2="223.961" gradientUnits="userSpaceOnUse">
<stop offset="0.195" stop-color="#33CCEB"/>
<stop offset="0.325" stop-color="#FFC73C"/>
<stop offset="0.44" stop-color="#EB5233"/>
</linearGradient>
<linearGradient id="paint17_linear_2508_114" x1="235.458" y1="109.637" x2="92.3666" y2="223.961" gradientUnits="userSpaceOnUse">
<stop offset="0.195" stop-color="#33CCEB"/>
<stop offset="0.325" stop-color="#FFC73C"/>
<stop offset="0.44" stop-color="#EB5233"/>
</linearGradient>
<linearGradient id="paint18_linear_2508_114" x1="235.458" y1="109.637" x2="92.3666" y2="223.961" gradientUnits="userSpaceOnUse">
<stop offset="0.195" stop-color="#33CCEB"/>
<stop offset="0.325" stop-color="#FFC73C"/>
<stop offset="0.44" stop-color="#EB5233"/>
</linearGradient>
<linearGradient id="paint19_linear_2508_114" x1="235.458" y1="109.637" x2="92.3666" y2="223.961" gradientUnits="userSpaceOnUse">
<stop offset="0.195" stop-color="#33CCEB"/>
<stop offset="0.325" stop-color="#FFC73C"/>
<stop offset="0.44" stop-color="#EB5233"/>
</linearGradient>
<linearGradient id="paint20_linear_2508_114" x1="235.458" y1="109.637" x2="92.3666" y2="223.961" gradientUnits="userSpaceOnUse">
<stop offset="0.195" stop-color="#33CCEB"/>
<stop offset="0.325" stop-color="#FFC73C"/>
<stop offset="0.44" stop-color="#EB5233"/>
</linearGradient>
<linearGradient id="paint21_linear_2508_114" x1="235.458" y1="109.637" x2="92.3666" y2="223.961" gradientUnits="userSpaceOnUse">
<stop offset="0.195" stop-color="#33CCEB"/>
<stop offset="0.325" stop-color="#FFC73C"/>
<stop offset="0.44" stop-color="#EB5233"/>
</linearGradient>
<linearGradient id="paint22_linear_2508_114" x1="235.458" y1="109.637" x2="92.3666" y2="223.961" gradientUnits="userSpaceOnUse">
<stop offset="0.195" stop-color="#33CCEB"/>
<stop offset="0.325" stop-color="#FFC73C"/>
<stop offset="0.44" stop-color="#EB5233"/>
</linearGradient>
<linearGradient id="paint23_linear_2508_114" x1="235.458" y1="109.637" x2="92.3666" y2="223.961" gradientUnits="userSpaceOnUse">
<stop offset="0.195" stop-color="#33CCEB"/>
<stop offset="0.325" stop-color="#FFC73C"/>
<stop offset="0.44" stop-color="#EB5233"/>
</linearGradient>
<linearGradient id="paint24_linear_2508_114" x1="235.458" y1="109.637" x2="92.3666" y2="223.961" gradientUnits="userSpaceOnUse">
<stop offset="0.195" stop-color="#33CCEB"/>
<stop offset="0.325" stop-color="#FFC73C"/>
<stop offset="0.44" stop-color="#EB5233"/>
</linearGradient>
<linearGradient id="paint25_linear_2508_114" x1="235.458" y1="109.637" x2="92.3666" y2="223.961" gradientUnits="userSpaceOnUse">
<stop offset="0.195" stop-color="#33CCEB"/>
<stop offset="0.325" stop-color="#FFC73C"/>
<stop offset="0.44" stop-color="#EB5233"/>
</linearGradient>
<linearGradient id="paint26_linear_2508_114" x1="235.458" y1="109.637" x2="92.3666" y2="223.961" gradientUnits="userSpaceOnUse">
<stop offset="0.195" stop-color="#33CCEB"/>
<stop offset="0.325" stop-color="#FFC73C"/>
<stop offset="0.44" stop-color="#EB5233"/>
</linearGradient>
<linearGradient id="paint27_linear_2508_114" x1="235.458" y1="109.637" x2="92.3666" y2="223.961" gradientUnits="userSpaceOnUse">
<stop offset="0.195" stop-color="#33CCEB"/>
<stop offset="0.325" stop-color="#FFC73C"/>
<stop offset="0.44" stop-color="#EB5233"/>
</linearGradient>
<linearGradient id="paint28_linear_2508_114" x1="235.458" y1="109.637" x2="92.3666" y2="223.961" gradientUnits="userSpaceOnUse">
<stop offset="0.195" stop-color="#33CCEB"/>
<stop offset="0.325" stop-color="#FFC73C"/>
<stop offset="0.44" stop-color="#EB5233"/>
</linearGradient>
<linearGradient id="paint29_linear_2508_114" x1="235.458" y1="109.637" x2="92.3666" y2="223.961" gradientUnits="userSpaceOnUse">
<stop offset="0.195" stop-color="#33CCEB"/>
<stop offset="0.325" stop-color="#FFC73C"/>
<stop offset="0.44" stop-color="#EB5233"/>
</linearGradient>
<linearGradient id="paint30_linear_2508_114" x1="235.458" y1="109.637" x2="92.3666" y2="223.961" gradientUnits="userSpaceOnUse">
<stop offset="0.195" stop-color="#33CCEB"/>
<stop offset="0.325" stop-color="#FFC73C"/>
<stop offset="0.44" stop-color="#EB5233"/>
</linearGradient>
<linearGradient id="paint31_linear_2508_114" x1="235.458" y1="109.637" x2="92.3666" y2="223.961" gradientUnits="userSpaceOnUse">
<stop offset="0.195" stop-color="#33CCEB"/>
<stop offset="0.325" stop-color="#FFC73C"/>
<stop offset="0.44" stop-color="#EB5233"/>
</linearGradient>
<linearGradient id="paint32_linear_2508_114" x1="235.458" y1="109.637" x2="92.3666" y2="223.961" gradientUnits="userSpaceOnUse">
<stop offset="0.195" stop-color="#33CCEB"/>
<stop offset="0.325" stop-color="#FFC73C"/>
<stop offset="0.44" stop-color="#EB5233"/>
</linearGradient>
<linearGradient id="paint33_linear_2508_114" x1="235.458" y1="109.637" x2="92.3666" y2="223.961" gradientUnits="userSpaceOnUse">
<stop offset="0.195" stop-color="#33CCEB"/>
<stop offset="0.325" stop-color="#FFC73C"/>
<stop offset="0.44" stop-color="#EB5233"/>
</linearGradient>
<linearGradient id="paint34_linear_2508_114" x1="235.458" y1="109.637" x2="92.3666" y2="223.961" gradientUnits="userSpaceOnUse">
<stop offset="0.195" stop-color="#33CCEB"/>
<stop offset="0.325" stop-color="#FFC73C"/>
<stop offset="0.44" stop-color="#EB5233"/>
</linearGradient>
<linearGradient id="paint35_linear_2508_114" x1="235.458" y1="109.637" x2="92.3666" y2="223.961" gradientUnits="userSpaceOnUse">
<stop offset="0.195" stop-color="#33CCEB"/>
<stop offset="0.325" stop-color="#FFC73C"/>
<stop offset="0.44" stop-color="#EB5233"/>
</linearGradient>
<linearGradient id="paint36_linear_2508_114" x1="235.458" y1="109.637" x2="92.3666" y2="223.961" gradientUnits="userSpaceOnUse">
<stop offset="0.195" stop-color="#33CCEB"/>
<stop offset="0.325" stop-color="#FFC73C"/>
<stop offset="0.44" stop-color="#EB5233"/>
</linearGradient>
<linearGradient id="paint37_linear_2508_114" x1="235.458" y1="109.637" x2="92.3666" y2="223.961" gradientUnits="userSpaceOnUse">
<stop offset="0.195" stop-color="#33CCEB"/>
<stop offset="0.325" stop-color="#FFC73C"/>
<stop offset="0.44" stop-color="#EB5233"/>
</linearGradient>
<linearGradient id="paint38_linear_2508_114" x1="235.458" y1="109.637" x2="92.3666" y2="223.961" gradientUnits="userSpaceOnUse">
<stop offset="0.195" stop-color="#33CCEB"/>
<stop offset="0.325" stop-color="#FFC73C"/>
<stop offset="0.44" stop-color="#EB5233"/>
</linearGradient>
<linearGradient id="paint39_linear_2508_114" x1="235.458" y1="109.637" x2="92.3666" y2="223.961" gradientUnits="userSpaceOnUse">
<stop offset="0.195" stop-color="#33CCEB"/>
<stop offset="0.325" stop-color="#FFC73C"/>
<stop offset="0.44" stop-color="#EB5233"/>
</linearGradient>
<linearGradient id="paint40_linear_2508_114" x1="235.458" y1="109.637" x2="92.3666" y2="223.961" gradientUnits="userSpaceOnUse">
<stop offset="0.195" stop-color="#33CCEB"/>
<stop offset="0.325" stop-color="#FFC73C"/>
<stop offset="0.44" stop-color="#EB5233"/>
</linearGradient>
<linearGradient id="paint41_linear_2508_114" x1="235.458" y1="109.637" x2="92.3666" y2="223.961" gradientUnits="userSpaceOnUse">
<stop offset="0.195" stop-color="#33CCEB"/>
<stop offset="0.325" stop-color="#FFC73C"/>
<stop offset="0.44" stop-color="#EB5233"/>
</linearGradient>
<linearGradient id="paint42_linear_2508_114" x1="235.458" y1="109.637" x2="92.3666" y2="223.961" gradientUnits="userSpaceOnUse">
<stop offset="0.195" stop-color="#33CCEB"/>
<stop offset="0.325" stop-color="#FFC73C"/>
<stop offset="0.44" stop-color="#EB5233"/>
</linearGradient>
<linearGradient id="paint43_linear_2508_114" x1="235.458" y1="109.637" x2="92.3666" y2="223.961" gradientUnits="userSpaceOnUse">
<stop offset="0.195" stop-color="#33CCEB"/>
<stop offset="0.325" stop-color="#FFC73C"/>
<stop offset="0.44" stop-color="#EB5233"/>
</linearGradient>
<linearGradient id="paint44_linear_2508_114" x1="235.458" y1="109.637" x2="92.3666" y2="223.961" gradientUnits="userSpaceOnUse">
<stop offset="0.195" stop-color="#33CCEB"/>
<stop offset="0.325" stop-color="#FFC73C"/>
<stop offset="0.44" stop-color="#EB5233"/>
</linearGradient>
<linearGradient id="paint45_linear_2508_114" x1="235.458" y1="109.637" x2="92.3666" y2="223.961" gradientUnits="userSpaceOnUse">
<stop offset="0.195" stop-color="#33CCEB"/>
<stop offset="0.325" stop-color="#FFC73C"/>
<stop offset="0.44" stop-color="#EB5233"/>
</linearGradient>
<linearGradient id="paint46_linear_2508_114" x1="235.458" y1="109.637" x2="92.3666" y2="223.961" gradientUnits="userSpaceOnUse">
<stop offset="0.195" stop-color="#33CCEB"/>
<stop offset="0.325" stop-color="#FFC73C"/>
<stop offset="0.44" stop-color="#EB5233"/>
</linearGradient>
<linearGradient id="paint47_linear_2508_114" x1="235.458" y1="109.637" x2="92.3666" y2="223.961" gradientUnits="userSpaceOnUse">
<stop offset="0.195" stop-color="#33CCEB"/>
<stop offset="0.325" stop-color="#FFC73C"/>
<stop offset="0.44" stop-color="#EB5233"/>
</linearGradient>
<linearGradient id="paint48_linear_2508_114" x1="235.458" y1="109.637" x2="92.3666" y2="223.961" gradientUnits="userSpaceOnUse">
<stop offset="0.195" stop-color="#33CCEB"/>
<stop offset="0.325" stop-color="#FFC73C"/>
<stop offset="0.44" stop-color="#EB5233"/>
</linearGradient>
<linearGradient id="paint49_linear_2508_114" x1="235.458" y1="109.637" x2="92.3666" y2="223.961" gradientUnits="userSpaceOnUse">
<stop offset="0.195" stop-color="#33CCEB"/>
<stop offset="0.325" stop-color="#FFC73C"/>
<stop offset="0.44" stop-color="#EB5233"/>
</linearGradient>
<linearGradient id="paint50_linear_2508_114" x1="235.458" y1="109.637" x2="92.3666" y2="223.961" gradientUnits="userSpaceOnUse">
<stop offset="0.195" stop-color="#33CCEB"/>
<stop offset="0.325" stop-color="#FFC73C"/>
<stop offset="0.44" stop-color="#EB5233"/>
</linearGradient>
<linearGradient id="paint51_linear_2508_114" x1="235.458" y1="109.637" x2="92.3666" y2="223.961" gradientUnits="userSpaceOnUse">
<stop offset="0.195" stop-color="#33CCEB"/>
<stop offset="0.325" stop-color="#FFC73C"/>
<stop offset="0.44" stop-color="#EB5233"/>
</linearGradient>
<linearGradient id="paint52_linear_2508_114" x1="235.458" y1="109.637" x2="92.3666" y2="223.961" gradientUnits="userSpaceOnUse">
<stop offset="0.195" stop-color="#33CCEB"/>
<stop offset="0.325" stop-color="#FFC73C"/>
<stop offset="0.44" stop-color="#EB5233"/>
</linearGradient>
<linearGradient id="paint53_linear_2508_114" x1="235.458" y1="109.637" x2="92.3666" y2="223.961" gradientUnits="userSpaceOnUse">
<stop offset="0.195" stop-color="#33CCEB"/>
<stop offset="0.325" stop-color="#FFC73C"/>
<stop offset="0.44" stop-color="#EB5233"/>
</linearGradient>
<linearGradient id="paint54_linear_2508_114" x1="235.458" y1="109.637" x2="92.3666" y2="223.961" gradientUnits="userSpaceOnUse">
<stop offset="0.195" stop-color="#33CCEB"/>
<stop offset="0.325" stop-color="#FFC73C"/>
<stop offset="0.44" stop-color="#EB5233"/>
</linearGradient>
<linearGradient id="paint55_linear_2508_114" x1="235.458" y1="109.637" x2="92.3666" y2="223.961" gradientUnits="userSpaceOnUse">
<stop offset="0.195" stop-color="#33CCEB"/>
<stop offset="0.325" stop-color="#FFC73C"/>
<stop offset="0.44" stop-color="#EB5233"/>
</linearGradient>
<linearGradient id="paint56_linear_2508_114" x1="235.458" y1="109.637" x2="92.3666" y2="223.961" gradientUnits="userSpaceOnUse">
<stop offset="0.195" stop-color="#33CCEB"/>
<stop offset="0.325" stop-color="#FFC73C"/>
<stop offset="0.44" stop-color="#EB5233"/>
</linearGradient>
<linearGradient id="paint57_linear_2508_114" x1="235.458" y1="109.637" x2="92.3666" y2="223.961" gradientUnits="userSpaceOnUse">
<stop offset="0.195" stop-color="#33CCEB"/>
<stop offset="0.325" stop-color="#FFC73C"/>
<stop offset="0.44" stop-color="#EB5233"/>
</linearGradient>
<linearGradient id="paint58_linear_2508_114" x1="235.458" y1="109.637" x2="92.3666" y2="223.961" gradientUnits="userSpaceOnUse">
<stop offset="0.195" stop-color="#33CCEB"/>
<stop offset="0.325" stop-color="#FFC73C"/>
<stop offset="0.44" stop-color="#EB5233"/>
</linearGradient>
<linearGradient id="paint59_linear_2508_114" x1="235.458" y1="109.637" x2="92.3666" y2="223.961" gradientUnits="userSpaceOnUse">
<stop offset="0.195" stop-color="#33CCEB"/>
<stop offset="0.325" stop-color="#FFC73C"/>
<stop offset="0.44" stop-color="#EB5233"/>
</linearGradient>
<radialGradient id="paint60_radial_2508_114" cx="0" cy="0" r="1" gradientUnits="userSpaceOnUse" gradientTransform="translate(978.813 51.3661) rotate(-33.1414) scale(102.278 141.438)">
<stop stop-color="#EB5233"/>
<stop offset="0.625" stop-color="#33CCEB"/>
</radialGradient>
<radialGradient id="paint61_radial_2508_114" cx="0" cy="0" r="1" gradientUnits="userSpaceOnUse" gradientTransform="translate(978.813 51.3661) rotate(-33.1414) scale(102.278 141.438)">
<stop stop-color="#EB5233"/>
<stop offset="0.625" stop-color="#33CCEB"/>
</radialGradient>
<radialGradient id="paint62_radial_2508_114" cx="0" cy="0" r="1" gradientUnits="userSpaceOnUse" gradientTransform="translate(978.813 51.3661) rotate(-33.1414) scale(102.278 141.438)">
<stop stop-color="#EB5233"/>
<stop offset="0.625" stop-color="#33CCEB"/>
</radialGradient>
<radialGradient id="paint63_radial_2508_114" cx="0" cy="0" r="1" gradientUnits="userSpaceOnUse" gradientTransform="translate(978.813 51.3661) rotate(-33.1414) scale(102.278 141.438)">
<stop stop-color="#EB5233"/>
<stop offset="0.625" stop-color="#33CCEB"/>
</radialGradient>
<radialGradient id="paint64_radial_2508_114" cx="0" cy="0" r="1" gradientUnits="userSpaceOnUse" gradientTransform="translate(978.813 51.3661) rotate(-33.1414) scale(102.278 141.438)">
<stop stop-color="#EB5233"/>
<stop offset="0.625" stop-color="#33CCEB"/>
</radialGradient>
<radialGradient id="paint65_radial_2508_114" cx="0" cy="0" r="1" gradientUnits="userSpaceOnUse" gradientTransform="translate(978.813 51.3661) rotate(-33.1414) scale(102.278 141.438)">
<stop stop-color="#EB5233"/>
<stop offset="0.625" stop-color="#33CCEB"/>
</radialGradient>
<radialGradient id="paint66_radial_2508_114" cx="0" cy="0" r="1" gradientUnits="userSpaceOnUse" gradientTransform="translate(978.813 51.3661) rotate(-33.1414) scale(102.278 141.438)">
<stop stop-color="#EB5233"/>
<stop offset="0.625" stop-color="#33CCEB"/>
</radialGradient>
<radialGradient id="paint67_radial_2508_114" cx="0" cy="0" r="1" gradientUnits="userSpaceOnUse" gradientTransform="translate(978.813 51.3661) rotate(-33.1414) scale(102.278 141.438)">
<stop stop-color="#EB5233"/>
<stop offset="0.625" stop-color="#33CCEB"/>
</radialGradient>
<radialGradient id="paint68_radial_2508_114" cx="0" cy="0" r="1" gradientUnits="userSpaceOnUse" gradientTransform="translate(978.813 51.3661) rotate(-33.1414) scale(102.278 141.438)">
<stop stop-color="#EB5233"/>
<stop offset="0.625" stop-color="#33CCEB"/>
</radialGradient>
<radialGradient id="paint69_radial_2508_114" cx="0" cy="0" r="1" gradientUnits="userSpaceOnUse" gradientTransform="translate(978.813 51.3661) rotate(-33.1414) scale(102.278 141.438)">
<stop stop-color="#EB5233"/>
<stop offset="0.625" stop-color="#33CCEB"/>
</radialGradient>
<radialGradient id="paint70_radial_2508_114" cx="0" cy="0" r="1" gradientUnits="userSpaceOnUse" gradientTransform="translate(978.813 51.3661) rotate(-33.1414) scale(102.278 141.438)">
<stop stop-color="#EB5233"/>
<stop offset="0.625" stop-color="#33CCEB"/>
</radialGradient>
<radialGradient id="paint71_radial_2508_114" cx="0" cy="0" r="1" gradientUnits="userSpaceOnUse" gradientTransform="translate(978.813 51.3661) rotate(-33.1414) scale(102.278 141.438)">
<stop stop-color="#EB5233"/>
<stop offset="0.625" stop-color="#33CCEB"/>
</radialGradient>
<radialGradient id="paint72_radial_2508_114" cx="0" cy="0" r="1" gradientUnits="userSpaceOnUse" gradientTransform="translate(978.813 51.3661) rotate(-33.1414) scale(102.278 141.438)">
<stop stop-color="#EB5233"/>
<stop offset="0.625" stop-color="#33CCEB"/>
</radialGradient>
<radialGradient id="paint73_radial_2508_114" cx="0" cy="0" r="1" gradientUnits="userSpaceOnUse" gradientTransform="translate(978.813 51.3661) rotate(-33.1414) scale(102.278 141.438)">
<stop stop-color="#EB5233"/>
<stop offset="0.625" stop-color="#33CCEB"/>
</radialGradient>
<radialGradient id="paint74_radial_2508_114" cx="0" cy="0" r="1" gradientUnits="userSpaceOnUse" gradientTransform="translate(978.813 51.3661) rotate(-33.1414) scale(102.278 141.438)">
<stop stop-color="#EB5233"/>
<stop offset="0.625" stop-color="#33CCEB"/>
</radialGradient>
<radialGradient id="paint75_radial_2508_114" cx="0" cy="0" r="1" gradientUnits="userSpaceOnUse" gradientTransform="translate(978.813 51.3661) rotate(-33.1414) scale(102.278 141.438)">
<stop stop-color="#EB5233"/>
<stop offset="0.625" stop-color="#33CCEB"/>
</radialGradient>
<radialGradient id="paint76_radial_2508_114" cx="0" cy="0" r="1" gradientUnits="userSpaceOnUse" gradientTransform="translate(978.813 51.3661) rotate(-33.1414) scale(102.278 141.438)">
<stop stop-color="#EB5233"/>
<stop offset="0.625" stop-color="#33CCEB"/>
</radialGradient>
<radialGradient id="paint77_radial_2508_114" cx="0" cy="0" r="1" gradientUnits="userSpaceOnUse" gradientTransform="translate(978.813 51.3661) rotate(-33.1414) scale(102.278 141.438)">
<stop stop-color="#EB5233"/>
<stop offset="0.625" stop-color="#33CCEB"/>
</radialGradient>
<radialGradient id="paint78_radial_2508_114" cx="0" cy="0" r="1" gradientUnits="userSpaceOnUse" gradientTransform="translate(978.813 51.3661) rotate(-33.1414) scale(102.278 141.438)">
<stop stop-color="#EB5233"/>
<stop offset="0.625" stop-color="#33CCEB"/>
</radialGradient>
<radialGradient id="paint79_radial_2508_114" cx="0" cy="0" r="1" gradientUnits="userSpaceOnUse" gradientTransform="translate(978.813 51.3661) rotate(-33.1414) scale(102.278 141.438)">
<stop stop-color="#EB5233"/>
<stop offset="0.625" stop-color="#33CCEB"/>
</radialGradient>
<radialGradient id="paint80_radial_2508_114" cx="0" cy="0" r="1" gradientUnits="userSpaceOnUse" gradientTransform="translate(978.813 51.3661) rotate(-33.1414) scale(102.278 141.438)">
<stop stop-color="#EB5233"/>
<stop offset="0.625" stop-color="#33CCEB"/>
</radialGradient>
<radialGradient id="paint81_radial_2508_114" cx="0" cy="0" r="1" gradientUnits="userSpaceOnUse" gradientTransform="translate(978.813 51.3661) rotate(-33.1414) scale(102.278 141.438)">
<stop stop-color="#EB5233"/>
<stop offset="0.625" stop-color="#33CCEB"/>
</radialGradient>
<radialGradient id="paint82_radial_2508_114" cx="0" cy="0" r="1" gradientUnits="userSpaceOnUse" gradientTransform="translate(978.813 51.3661) rotate(-33.1414) scale(102.278 141.438)">
<stop stop-color="#EB5233"/>
<stop offset="0.625" stop-color="#33CCEB"/>
</radialGradient>
<radialGradient id="paint83_radial_2508_114" cx="0" cy="0" r="1" gradientUnits="userSpaceOnUse" gradientTransform="translate(978.813 51.3661) rotate(-33.1414) scale(102.278 141.438)">
<stop stop-color="#EB5233"/>
<stop offset="0.625" stop-color="#33CCEB"/>
</radialGradient>
<radialGradient id="paint84_radial_2508_114" cx="0" cy="0" r="1" gradientUnits="userSpaceOnUse" gradientTransform="translate(978.813 51.3661) rotate(-33.1414) scale(102.278 141.438)">
<stop stop-color="#EB5233"/>
<stop offset="0.625" stop-color="#33CCEB"/>
</radialGradient>
<radialGradient id="paint85_radial_2508_114" cx="0" cy="0" r="1" gradientUnits="userSpaceOnUse" gradientTransform="translate(978.813 51.3661) rotate(-33.1414) scale(102.278 141.438)">
<stop stop-color="#EB5233"/>
<stop offset="0.625" stop-color="#33CCEB"/>
</radialGradient>
<radialGradient id="paint86_radial_2508_114" cx="0" cy="0" r="1" gradientUnits="userSpaceOnUse" gradientTransform="translate(978.813 51.3661) rotate(-33.1414) scale(102.278 141.438)">
<stop stop-color="#EB5233"/>
<stop offset="0.625" stop-color="#33CCEB"/>
</radialGradient>
<radialGradient id="paint87_radial_2508_114" cx="0" cy="0" r="1" gradientUnits="userSpaceOnUse" gradientTransform="translate(978.813 51.3661) rotate(-33.1414) scale(102.278 141.438)">
<stop stop-color="#EB5233"/>
<stop offset="0.625" stop-color="#33CCEB"/>
</radialGradient>
<radialGradient id="paint88_radial_2508_114" cx="0" cy="0" r="1" gradientUnits="userSpaceOnUse" gradientTransform="translate(978.813 51.3661) rotate(-33.1414) scale(102.278 141.438)">
<stop stop-color="#EB5233"/>
<stop offset="0.625" stop-color="#33CCEB"/>
</radialGradient>
<radialGradient id="paint89_radial_2508_114" cx="0" cy="0" r="1" gradientUnits="userSpaceOnUse" gradientTransform="translate(978.813 51.3661) rotate(-33.1414) scale(102.278 141.438)">
<stop stop-color="#EB5233"/>
<stop offset="0.625" stop-color="#33CCEB"/>
</radialGradient>
<radialGradient id="paint90_radial_2508_114" cx="0" cy="0" r="1" gradientUnits="userSpaceOnUse" gradientTransform="translate(978.813 51.3661) rotate(-33.1414) scale(102.278 141.438)">
<stop stop-color="#EB5233"/>
<stop offset="0.625" stop-color="#33CCEB"/>
</radialGradient>
<radialGradient id="paint91_radial_2508_114" cx="0" cy="0" r="1" gradientUnits="userSpaceOnUse" gradientTransform="translate(978.813 51.3661) rotate(-33.1414) scale(102.278 141.438)">
<stop stop-color="#EB5233"/>
<stop offset="0.625" stop-color="#33CCEB"/>
</radialGradient>
<radialGradient id="paint92_radial_2508_114" cx="0" cy="0" r="1" gradientUnits="userSpaceOnUse" gradientTransform="translate(978.813 51.3661) rotate(-33.1414) scale(102.278 141.438)">
<stop stop-color="#EB5233"/>
<stop offset="0.625" stop-color="#33CCEB"/>
</radialGradient>
<radialGradient id="paint93_radial_2508_114" cx="0" cy="0" r="1" gradientUnits="userSpaceOnUse" gradientTransform="translate(978.813 51.3661) rotate(-33.1414) scale(102.278 141.438)">
<stop stop-color="#EB5233"/>
<stop offset="0.625" stop-color="#33CCEB"/>
</radialGradient>
<radialGradient id="paint94_radial_2508_114" cx="0" cy="0" r="1" gradientUnits="userSpaceOnUse" gradientTransform="translate(978.813 51.3661) rotate(-33.1414) scale(102.278 141.438)">
<stop stop-color="#EB5233"/>
<stop offset="0.625" stop-color="#33CCEB"/>
</radialGradient>
<radialGradient id="paint95_radial_2508_114" cx="0" cy="0" r="1" gradientUnits="userSpaceOnUse" gradientTransform="translate(978.813 51.3661) rotate(-33.1414) scale(102.278 141.438)">
<stop stop-color="#EB5233"/>
<stop offset="0.625" stop-color="#33CCEB"/>
</radialGradient>
<radialGradient id="paint96_radial_2508_114" cx="0" cy="0" r="1" gradientUnits="userSpaceOnUse" gradientTransform="translate(978.813 51.3661) rotate(-33.1414) scale(102.278 141.438)">
<stop stop-color="#EB5233"/>
<stop offset="0.625" stop-color="#33CCEB"/>
</radialGradient>
<radialGradient id="paint97_radial_2508_114" cx="0" cy="0" r="1" gradientUnits="userSpaceOnUse" gradientTransform="translate(978.813 51.3661) rotate(-33.1414) scale(102.278 141.438)">
<stop stop-color="#EB5233"/>
<stop offset="0.625" stop-color="#33CCEB"/>
</radialGradient>
<radialGradient id="paint98_radial_2508_114" cx="0" cy="0" r="1" gradientUnits="userSpaceOnUse" gradientTransform="translate(978.813 51.3661) rotate(-33.1414) scale(102.278 141.438)">
<stop stop-color="#EB5233"/>
<stop offset="0.625" stop-color="#33CCEB"/>
</radialGradient>
<radialGradient id="paint99_radial_2508_114" cx="0" cy="0" r="1" gradientUnits="userSpaceOnUse" gradientTransform="translate(978.813 51.3661) rotate(-33.1414) scale(102.278 141.438)">
<stop stop-color="#EB5233"/>
<stop offset="0.625" stop-color="#33CCEB"/>
</radialGradient>
<radialGradient id="paint100_radial_2508_114" cx="0" cy="0" r="1" gradientUnits="userSpaceOnUse" gradientTransform="translate(978.813 51.3661) rotate(-33.1414) scale(102.278 141.438)">
<stop stop-color="#EB5233"/>
<stop offset="0.625" stop-color="#33CCEB"/>
</radialGradient>
<radialGradient id="paint101_radial_2508_114" cx="0" cy="0" r="1" gradientUnits="userSpaceOnUse" gradientTransform="translate(978.813 51.3661) rotate(-33.1414) scale(102.278 141.438)">
<stop stop-color="#EB5233"/>
<stop offset="0.625" stop-color="#33CCEB"/>
</radialGradient>
<radialGradient id="paint102_radial_2508_114" cx="0" cy="0" r="1" gradientUnits="userSpaceOnUse" gradientTransform="translate(978.813 51.3661) rotate(-33.1414) scale(102.278 141.438)">
<stop stop-color="#EB5233"/>
<stop offset="0.625" stop-color="#33CCEB"/>
</radialGradient>
<radialGradient id="paint103_radial_2508_114" cx="0" cy="0" r="1" gradientUnits="userSpaceOnUse" gradientTransform="translate(978.813 51.3661) rotate(-33.1414) scale(102.278 141.438)">
<stop stop-color="#EB5233"/>
<stop offset="0.625" stop-color="#33CCEB"/>
</radialGradient>
<radialGradient id="paint104_radial_2508_114" cx="0" cy="0" r="1" gradientUnits="userSpaceOnUse" gradientTransform="translate(978.813 51.3661) rotate(-33.1414) scale(102.278 141.438)">
<stop stop-color="#EB5233"/>
<stop offset="0.625" stop-color="#33CCEB"/>
</radialGradient>
<radialGradient id="paint105_radial_2508_114" cx="0" cy="0" r="1" gradientUnits="userSpaceOnUse" gradientTransform="translate(978.813 51.3661) rotate(-33.1414) scale(102.278 141.438)">
<stop stop-color="#EB5233"/>
<stop offset="0.625" stop-color="#33CCEB"/>
</radialGradient>
<radialGradient id="paint106_radial_2508_114" cx="0" cy="0" r="1" gradientUnits="userSpaceOnUse" gradientTransform="translate(978.813 51.3661) rotate(-33.1414) scale(102.278 141.438)">
<stop stop-color="#EB5233"/>
<stop offset="0.625" stop-color="#33CCEB"/>
</radialGradient>
<radialGradient id="paint107_radial_2508_114" cx="0" cy="0" r="1" gradientUnits="userSpaceOnUse" gradientTransform="translate(978.813 51.3661) rotate(-33.1414) scale(102.278 141.438)">
<stop stop-color="#EB5233"/>
<stop offset="0.625" stop-color="#33CCEB"/>
</radialGradient>
<radialGradient id="paint108_radial_2508_114" cx="0" cy="0" r="1" gradientUnits="userSpaceOnUse" gradientTransform="translate(978.813 51.3661) rotate(-33.1414) scale(102.278 141.438)">
<stop stop-color="#EB5233"/>
<stop offset="0.625" stop-color="#33CCEB"/>
</radialGradient>
<radialGradient id="paint109_radial_2508_114" cx="0" cy="0" r="1" gradientUnits="userSpaceOnUse" gradientTransform="translate(978.813 51.3661) rotate(-33.1414) scale(102.278 141.438)">
<stop stop-color="#EB5233"/>
<stop offset="0.625" stop-color="#33CCEB"/>
</radialGradient>
<radialGradient id="paint110_radial_2508_114" cx="0" cy="0" r="1" gradientUnits="userSpaceOnUse" gradientTransform="translate(978.813 51.3661) rotate(-33.1414) scale(102.278 141.438)">
<stop stop-color="#EB5233"/>
<stop offset="0.625" stop-color="#33CCEB"/>
</radialGradient>
<radialGradient id="paint111_radial_2508_114" cx="0" cy="0" r="1" gradientUnits="userSpaceOnUse" gradientTransform="translate(978.813 51.3661) rotate(-33.1414) scale(102.278 141.438)">
<stop stop-color="#EB5233"/>
<stop offset="0.625" stop-color="#33CCEB"/>
</radialGradient>
<radialGradient id="paint112_radial_2508_114" cx="0" cy="0" r="1" gradientUnits="userSpaceOnUse" gradientTransform="translate(978.813 51.3661) rotate(-33.1414) scale(102.278 141.438)">
<stop stop-color="#EB5233"/>
<stop offset="0.625" stop-color="#33CCEB"/>
</radialGradient>
<radialGradient id="paint113_radial_2508_114" cx="0" cy="0" r="1" gradientUnits="userSpaceOnUse" gradientTransform="translate(978.813 51.3661) rotate(-33.1414) scale(102.278 141.438)">
<stop stop-color="#EB5233"/>
<stop offset="0.625" stop-color="#33CCEB"/>
</radialGradient>
<radialGradient id="paint114_radial_2508_114" cx="0" cy="0" r="1" gradientUnits="userSpaceOnUse" gradientTransform="translate(978.813 51.3661) rotate(-33.1414) scale(102.278 141.438)">
<stop stop-color="#EB5233"/>
<stop offset="0.625" stop-color="#33CCEB"/>
</radialGradient>
<radialGradient id="paint115_radial_2508_114" cx="0" cy="0" r="1" gradientUnits="userSpaceOnUse" gradientTransform="translate(978.813 51.3661) rotate(-33.1414) scale(102.278 141.438)">
<stop stop-color="#EB5233"/>
<stop offset="0.625" stop-color="#33CCEB"/>
</radialGradient>
<radialGradient id="paint116_radial_2508_114" cx="0" cy="0" r="1" gradientUnits="userSpaceOnUse" gradientTransform="translate(978.813 51.3661) rotate(-33.1414) scale(102.278 141.438)">
<stop stop-color="#EB5233"/>
<stop offset="0.625" stop-color="#33CCEB"/>
</radialGradient>
<radialGradient id="paint117_radial_2508_114" cx="0" cy="0" r="1" gradientUnits="userSpaceOnUse" gradientTransform="translate(978.813 51.3661) rotate(-33.1414) scale(102.278 141.438)">
<stop stop-color="#EB5233"/>
<stop offset="0.625" stop-color="#33CCEB"/>
</radialGradient>
<radialGradient id="paint118_radial_2508_114" cx="0" cy="0" r="1" gradientUnits="userSpaceOnUse" gradientTransform="translate(978.813 51.3661) rotate(-33.1414) scale(102.278 141.438)">
<stop stop-color="#EB5233"/>
<stop offset="0.625" stop-color="#33CCEB"/>
</radialGradient>
<radialGradient id="paint119_radial_2508_114" cx="0" cy="0" r="1" gradientUnits="userSpaceOnUse" gradientTransform="translate(978.813 51.3661) rotate(-33.1414) scale(102.278 141.438)">
<stop stop-color="#EB5233"/>
<stop offset="0.625" stop-color="#33CCEB"/>
</radialGradient>
</defs>
</svg>
