<svg width="39" height="39" viewBox="0 0 39 39" fill="none" xmlns="http://www.w3.org/2000/svg">
<path d="M10.0952 17.2884V14.2122C10.0952 14.0301 10.0952 13.9573 10.3329 13.9573C12.3703 13.9573 14.0263 13.8365 14.8485 14.3214C15.6727 14.8044 15.7072 15.4714 15.7206 15.6708C15.734 15.8701 15.7283 16.1557 15.345 16.8514C14.9616 17.5472 13.2462 17.5606 12.008 17.5606H10.3693C10.168 17.5606 10.0952 17.4878 10.0952 17.2884ZM15.7417 20.5123C15.9315 20.7546 16.067 21.0349 16.139 21.3342C16.211 21.6335 16.2178 21.9447 16.1589 22.2469C16.1 22.549 15.9768 22.8349 15.7977 23.0853C15.6185 23.3356 15.3877 23.5445 15.1207 23.6978C14.7286 23.8627 14.308 23.9493 13.8825 23.9527H10.3501C10.168 23.9527 10.0952 23.9527 10.0952 23.7169V20.0753C10.0952 19.8932 10.0952 19.8203 10.3329 19.8203H12.6808C14.1375 19.8203 15.0479 19.6938 15.7417 20.5123Z" fill="#FFFEFE"/>
<path d="M28.5622 18.8256C28.4646 18.5953 28.3163 18.39 28.1286 18.2247C27.9408 18.0595 27.7182 17.9387 27.4774 17.8711C26.996 17.7396 26.4922 17.7117 25.9992 17.7894C25.5062 17.867 25.0354 18.0484 24.6177 18.3215C24.2015 18.7421 23.9325 19.286 23.851 19.8721C23.851 20.0772 23.851 20.1155 24.0945 20.1155H28.637C28.8612 20.1155 28.8612 20.1155 28.842 19.8338C28.8206 19.4816 28.7265 19.1379 28.5622 18.8256ZM28.5622 18.8256C28.4646 18.5953 28.3144 18.39 28.1266 18.2247C27.9388 18.0595 27.7182 17.9387 27.4774 17.8711C26.996 17.7396 26.4922 17.7117 25.9992 17.7894C25.5062 17.867 25.0354 18.0484 24.6177 18.3215C24.2015 18.7421 23.9306 19.286 23.8491 19.8721C23.8491 20.0772 23.8491 20.1155 24.0925 20.1155H28.637C28.8612 20.1155 28.8612 20.1155 28.842 19.8338C28.8206 19.4816 28.7226 19.1379 28.5584 18.8256M30.6916 0.791687H8.26663C6.28413 0.791687 4.38284 1.57923 2.981 2.98106C1.57917 4.3829 0.791626 6.28419 0.791626 8.26669V30.6917C0.791626 32.6742 1.57917 34.5755 2.981 35.9773C4.38284 37.3791 6.28413 38.1667 8.26663 38.1667H30.6916C32.6741 38.1667 34.5754 37.3791 35.9772 35.9773C37.3791 34.5755 38.1666 32.6742 38.1666 30.6917V8.26669C38.1666 6.28419 37.3791 4.3829 35.9772 2.98106C34.5754 1.57923 32.6741 0.791687 30.6916 0.791687ZM23.3661 12.6942C23.3661 12.5466 23.3661 12.4891 23.5348 12.4891H29.5895V14.0608C29.5895 14.0608 29.5953 14.1719 29.4956 14.1719H23.6287C23.3661 14.1719 23.3661 14.1719 23.3661 13.9113V12.6942ZM17.7599 26.4309C15.4599 27.6825 11.594 27.1784 7.01504 27.1784V11.686H14.3214C16.1901 11.686 18.4135 12.1537 19.0115 14.1336C19.322 14.9984 19.3031 15.9472 18.9584 16.7989C18.6137 17.6506 17.9673 18.3455 17.1427 18.7509C17.9028 19.0321 18.5663 19.5252 19.0549 20.1719C19.5434 20.8185 19.8365 21.5915 19.8994 22.3995C19.9623 23.2075 19.7925 24.0166 19.4099 24.7311C19.0273 25.4455 18.4481 26.0354 17.7407 26.4309H17.7599ZM31.6825 22.0207H24.2075C24.0025 22.0207 23.8146 22.1319 23.851 22.3944C24.0753 23.4965 24.5794 24.6561 25.7217 24.8248C26.3249 25.0043 26.9708 24.9767 27.5565 24.7464C28.1422 24.5161 28.6339 24.0963 28.9532 23.554C28.9532 23.554 29.0471 23.4409 29.1027 23.4409H31.533C31.533 23.4409 31.6825 23.4409 31.6442 23.5713C31.3879 24.297 31.0086 24.9733 30.523 25.5704C29.8734 26.1908 29.0896 26.6532 28.2324 26.9217C27.3752 27.1902 26.4677 27.2575 25.5803 27.1185C24.6928 26.9795 23.8494 26.6378 23.1154 26.12C22.3814 25.6022 21.7765 24.9222 21.3479 24.1329C21.0842 23.6065 20.9198 23.036 20.863 22.45C20.5296 20.9772 20.7844 19.4325 21.5731 18.1448C22.3617 16.8571 23.622 15.9281 25.0854 15.5558C29.327 14.6396 32.018 17.5549 32.018 21.6661C32.0242 21.7142 32.0194 21.763 32.0038 21.8089C31.9882 21.8548 31.9623 21.8965 31.928 21.9307C31.8937 21.965 31.852 21.9909 31.8062 22.0065C31.7603 22.0221 31.7114 22.027 31.6634 22.0207H31.6825ZM27.4965 17.8711C27.0156 17.7377 26.5114 17.7102 26.0188 17.7906C25.5262 17.8673 25.0854 17.9612 24.6369 18.3215C24.1884 18.6799 23.9507 19.2856 23.8702 19.8721C23.8702 20.0772 23.8702 20.1155 24.1136 20.1155H28.637C28.8612 20.1155 28.8612 20.1155 28.842 19.8338C28.8206 19.4816 28.7265 19.1379 28.5622 18.8256C28.4646 18.5953 28.3163 18.39 28.1286 18.2247C27.9408 18.0595 27.7182 17.9387 27.4774 17.8711H27.4965Z" fill="#FFFEFE"/>
</svg>
