<svg width="5252" height="285" viewBox="0 0 5252 285" fill="none" xmlns="http://www.w3.org/2000/svg">
<path d="M112.927 218.954C94.709 208.944 71.8867 198.534 36.6523 184.32C8.8252 173.31 5.82227 171.708 3.82031 167.904C0.216797 160.897 2.81934 145.282 8.4248 140.678C11.6279 138.075 13.2295 137.875 19.4355 139.276C22.8389 140.277 23.8398 140.077 25.2412 139.076C27.043 137.675 73.6885 85.2236 87.502 69.208C92.3066 63.8027 97.3115 58.3975 98.5127 57.3965C100.915 55.5947 101.315 55.5947 104.318 56.9961C108.723 58.7979 115.729 66.4053 118.732 72.4111C119.934 75.2139 121.135 79.6182 121.335 82.8213C121.735 87.4258 121.335 89.0273 119.133 92.8311C115.93 98.4365 88.5029 125.863 69.8848 142.079L56.2715 153.891L72.2871 162.299C91.3057 172.108 98.5127 176.312 111.726 185.922C124.138 195.131 125.339 196.532 125.339 203.539C125.339 210.546 123.938 215.551 120.734 218.954L118.132 221.757L112.927 218.954ZM312.121 13.3535C314.724 13.5537 316.726 14.5547 318.527 16.5566C320.129 18.3584 324.533 23.1631 328.337 27.167C341.149 41.1807 342.951 49.5889 344.353 98.0361C345.153 132.47 342.751 150.888 334.143 176.513C326.936 198.334 317.326 214.55 302.912 229.364C287.897 244.979 271.481 256.991 251.462 267.001C225.637 280.014 205.417 284.018 188.4 279.413C179.792 277.211 174.187 274.408 169.582 270.004C163.376 263.998 164.978 260.194 173.986 260.194C178.591 260.194 179.592 259.994 179.191 258.793C178.19 256.391 175.788 241.776 174.787 232.367C172.785 215.351 171.784 188.524 171.184 141.479C170.583 97.8359 171.184 78.8174 173.386 60.1992L173.986 54.9941L169.782 54.3936C159.572 52.792 152.165 46.9863 147.561 36.9766C145.759 32.5723 144.958 25.3652 146.159 23.1631C146.56 22.5625 149.162 21.3613 151.965 20.5605C156.169 19.1592 165.178 18.959 217.829 18.1582C275.886 17.5576 298.908 16.5566 306.315 14.3545C308.518 13.7539 310.52 13.3535 312.121 13.3535ZM295.305 47.5869C292.902 47.5869 288.698 47.9873 281.691 48.9883C273.283 49.9893 257.067 51.5908 245.656 52.5918L224.836 54.1934V63.4023C224.636 73.0117 222.834 85.624 217.429 114.853C211.022 148.686 207.419 185.121 206.618 224.76C206.018 250.585 206.218 251.986 207.819 251.386C208.62 250.985 213.425 248.183 218.43 245.38C231.843 237.372 245.856 226.562 257.668 214.75C278.488 193.729 285.896 177.914 294.104 135.673C299.108 109.647 300.51 98.6367 300.71 84.623C300.91 72.0107 298.908 50.1895 297.507 47.9873C297.307 47.7871 296.706 47.5869 295.305 47.5869ZM398.405 255.99C392.199 254.789 380.788 248.783 377.585 245.18C374.382 241.576 374.182 240.375 372.38 218.153C370.778 198.334 371.779 132.87 374.382 87.626C376.584 45.7852 377.585 34.1738 379.787 30.3701C382.59 24.9648 389.997 22.9629 401.008 25.165C415.622 27.9678 429.636 37.5771 432.438 46.9863C435.441 56.7959 434.44 68.8076 424.23 151.288C417.023 210.946 415.622 224.56 415.622 242.177V253.988L412.419 255.39C408.815 257.191 405.212 257.191 398.405 255.99ZM508.312 263.998C507.111 262.797 506.911 261.796 507.312 260.795C508.513 257.992 508.713 236.371 507.712 224.159C505.51 199.936 499.704 165.302 494.099 143.48C487.492 116.654 477.082 93.6318 460.866 69.6084C443.449 43.9834 442.048 39.3789 449.055 31.7715C456.062 23.9639 468.874 19.3594 482.688 19.1592C490.295 19.1592 492.497 19.5596 495.7 21.1611C503.708 25.3652 510.114 35.7754 516.12 53.5928C527.331 87.2256 532.536 111.649 536.94 152.089C538.942 169.906 538.742 169.706 540.144 164.501C540.744 162.099 543.347 153.891 545.749 146.283C559.963 100.639 593.596 32.7725 608.41 19.1592C612.414 15.5557 612.614 15.5557 619.421 15.9561C627.629 16.3564 635.236 19.5596 640.441 24.7646C646.247 30.5703 647.248 27.5674 624.226 67.0059C594.196 118.856 575.778 156.293 563.566 191.928C560.163 201.737 558.361 202.938 549.553 200.736C546.35 199.936 542.946 198.935 542.146 198.734C540.744 198.134 540.544 199.936 539.943 216.151C539.343 240.775 536.94 249.584 529.133 257.191C522.326 263.598 511.516 267.201 508.312 263.998ZM679.88 224.359C677.478 221.757 675.476 218.554 674.675 215.751C673.474 211.547 673.474 211.146 675.876 207.943C684.284 195.932 711.11 169.105 731.33 152.089C735.534 148.686 738.938 145.482 738.938 145.082C738.938 144.882 734.733 142.479 729.528 140.077C715.915 133.471 698.498 119.657 677.678 99.0371C660.861 82.4209 659.86 74.4131 673.674 65.4043C684.084 58.5977 699.099 56.3955 706.906 60.3994C711.711 62.8018 713.312 64.6035 721.721 77.416C737.336 101.039 757.756 125.062 763.361 126.464C764.562 126.664 766.564 126.464 767.565 125.863C768.767 125.463 770.568 124.862 771.97 124.862C776.975 124.862 783.181 134.071 783.181 141.679C783.181 147.484 780.178 150.688 760.759 165.502C732.932 186.522 712.312 203.739 695.695 219.755C690.69 224.56 685.886 228.563 685.285 228.563C684.484 228.563 682.082 226.762 679.88 224.359ZM932.126 218.954C913.908 208.944 891.086 198.534 855.852 184.32C828.024 173.31 825.021 171.708 823.02 167.904C819.416 160.897 822.019 145.282 827.624 140.678C830.827 138.075 832.429 137.875 838.635 139.276C842.038 140.277 843.039 140.077 844.44 139.076C846.242 137.675 892.888 85.2236 906.701 69.208C911.506 63.8027 916.511 58.3975 917.712 57.3965C920.114 55.5947 920.515 55.5947 923.518 56.9961C927.922 58.7979 934.929 66.4053 937.932 72.4111C939.133 75.2139 940.334 79.6182 940.534 82.8213C940.935 87.4258 940.534 89.0273 938.332 92.8311C935.129 98.4365 907.702 125.863 889.084 142.079L875.471 153.891L891.486 162.299C910.505 172.108 917.712 176.312 930.925 185.922C943.337 195.131 944.538 196.532 944.538 203.539C944.538 210.546 943.137 215.551 939.934 218.954L937.331 221.757L932.126 218.954ZM1013.41 19.3594C1020.81 19.3594 1030.82 19.7598 1042.83 20.5605C1051.24 21.1611 1076.07 22.1621 1098.09 22.7627L1137.93 23.7637L1145.33 26.7666C1157.95 31.5713 1165.55 39.9795 1167.96 51.9912C1170.56 64.2031 1171.56 82.0205 1171.56 117.255C1171.56 148.085 1171.36 154.892 1169.96 161.898C1166.96 176.312 1165.55 179.716 1161.95 182.719L1158.55 185.121L1121.31 186.522C1088.08 187.523 1055.65 189.525 1041.83 191.527L1037.03 192.128L1033.42 206.542C1025.82 236.771 1018.61 255.79 1011.4 263.998C1008.4 267.602 1007.8 267.802 1002.39 268.202C998.591 268.402 995.188 268.002 991.784 266.601C986.379 264.799 981.975 261.396 981.975 259.193C981.975 258.593 982.976 254.789 984.177 250.985C986.379 244.379 990.783 223.959 993.786 206.142L994.987 198.134L991.584 198.734C989.782 199.135 984.978 200.336 981.174 201.337C974.968 203.339 974.167 203.339 972.165 201.938C966.96 198.534 962.355 185.321 963.957 178.715C964.958 175.312 973.767 170.507 988.181 165.702L999.592 161.898L1000.39 157.895C1001.99 148.886 1004 121.859 1004.6 104.242C1005.2 84.0225 1004.4 70.0088 1000.99 49.7891C998.591 34.9746 998.391 22.9629 1000.59 20.7607C1001.59 19.7598 1006.2 19.3594 1013.41 19.3594ZM1124.31 50.79C1123.11 50.5898 1118.31 50.9902 1112.9 51.3906C1106.5 51.9912 1089.48 52.792 1074.67 52.9922L1048.04 53.5928L1048.64 55.9951C1051.04 65.6045 1051.64 90.4287 1050.04 108.646C1049.04 119.257 1045.64 145.482 1044.64 150.688C1044.24 153.29 1044.24 153.29 1046.84 152.89C1048.44 152.489 1056.25 151.488 1064.46 150.487C1091.88 146.884 1102.29 146.083 1119.71 146.083H1137.13L1136.73 140.277C1136.12 128.266 1133.52 103.241 1131.52 90.2285C1129.72 76.8154 1125.11 51.1904 1124.51 50.79C1124.51 50.79 1124.51 50.79 1124.31 50.79ZM1228.42 224.359C1226.01 221.757 1224.01 218.554 1223.21 215.751C1222.01 211.547 1222.01 211.146 1224.41 207.943C1232.82 195.932 1259.65 169.105 1279.87 152.089C1284.07 148.686 1287.47 145.482 1287.47 145.082C1287.47 144.882 1283.27 142.479 1278.06 140.077C1264.45 133.471 1247.03 119.657 1226.21 99.0371C1209.4 82.4209 1208.4 74.4131 1222.21 65.4043C1232.62 58.5977 1247.63 56.3955 1255.44 60.3994C1260.25 62.8018 1261.85 64.6035 1270.26 77.416C1285.87 101.039 1306.29 125.062 1311.9 126.464C1313.1 126.664 1315.1 126.464 1316.1 125.863C1317.3 125.463 1319.1 124.862 1320.5 124.862C1325.51 124.862 1331.72 134.071 1331.72 141.679C1331.72 147.484 1328.71 150.688 1309.29 165.502C1281.47 186.522 1260.85 203.739 1244.23 219.755C1239.23 224.56 1234.42 228.563 1233.82 228.563C1233.02 228.563 1230.62 226.762 1228.42 224.359ZM1455.24 266C1434.22 261.596 1419.8 252.987 1399.58 232.567C1383.37 216.352 1371.15 197.733 1368.95 185.922C1366.95 175.512 1366.95 172.909 1368.95 170.707C1370.75 169.105 1371.96 168.905 1378.36 169.306C1386.77 169.706 1392.58 172.108 1393.98 175.712C1399.18 189.325 1407.39 200.937 1421 213.949C1435.82 227.963 1453.63 241.176 1458.24 241.176C1459.44 241.176 1462.64 238.573 1466.25 234.97C1475.66 225.36 1483.66 208.144 1492.67 178.314C1497.68 161.298 1503.68 137.475 1503.08 136.874C1502.88 136.674 1476.06 136.073 1443.62 135.673C1394.98 134.872 1383.57 134.472 1378.56 133.07C1366.95 130.067 1359.94 125.263 1355.54 116.654C1352.74 110.849 1350.53 103.642 1350.53 98.6367C1350.53 95.6338 1351.13 94.833 1354.74 92.2305C1360.54 87.8262 1375.56 80.8193 1410.99 65.8047C1463.04 43.583 1493.87 27.167 1506.29 14.3545C1509.89 10.5508 1512.69 8.74902 1514.09 8.74902C1519.5 8.74902 1528.11 21.5615 1530.11 32.7725C1532.11 42.9824 1528.91 50.9902 1518.9 61.6006C1507.49 73.6123 1488.87 84.4229 1464.04 93.2314C1459.24 95.0332 1455.84 96.835 1456.44 97.0352C1457.04 97.4355 1462.24 98.0361 1467.65 98.4365C1473.25 98.8369 1486.87 100.038 1497.88 101.439C1509.09 102.641 1521.9 103.842 1526.71 104.242C1535.31 105.043 1535.31 105.043 1539.32 109.247C1541.72 111.649 1544.32 115.653 1545.52 118.856C1547.53 124.062 1547.53 125.062 1546.53 139.677C1543.52 181.518 1535.92 216.952 1524.7 239.174C1517.3 254.188 1506.69 262.997 1491.47 266.601C1483.06 268.402 1465.45 268.202 1455.24 266ZM1604.78 266.2C1602.98 264.999 1602.58 263.798 1602.58 259.193C1602.58 256.19 1601.58 247.582 1600.58 239.975L1598.38 226.161L1593.97 226.762C1591.57 227.162 1587.37 228.163 1584.56 228.964C1577.96 230.966 1575.15 230.165 1569.15 223.959C1559.74 214.149 1553.73 197.133 1558.14 192.128C1559.74 190.126 1561.34 189.926 1575.15 188.925C1583.76 188.324 1590.77 187.724 1590.77 187.523C1591.37 186.923 1580.16 136.073 1574.55 113.651C1571.35 100.839 1565.34 80.0186 1561.14 67.2061C1556.94 54.1934 1553.53 42.3818 1553.53 40.1797C1553.53 37.1768 1554.33 35.7754 1556.54 33.5732C1565.94 23.9639 1593.77 23.1631 1601.58 31.9717C1605.18 36.1758 1607.99 43.7832 1610.39 56.1953C1613.59 73.8125 1628.61 180.116 1628.61 185.722C1628.61 185.922 1634.41 185.922 1641.82 185.922L1654.83 185.521L1655.23 181.317C1656.83 149.086 1663.04 81.2197 1666.04 65.0039C1667.04 58.5977 1669.85 55.9951 1676.25 54.9941C1685.66 53.793 1701.08 58.5977 1705.88 64.4033C1707.68 66.6055 1708.28 68.207 1708.28 72.8115C1708.28 75.8145 1704.68 100.238 1700.08 126.664C1695.67 153.29 1691.87 177.313 1691.47 179.916L1690.87 184.921L1704.68 185.521C1712.49 185.922 1719.29 186.122 1720.09 185.722C1720.7 185.521 1722.3 180.917 1723.5 174.911C1729.7 145.683 1747.72 79.0176 1754.33 61.8008C1762.34 40.1797 1772.15 25.3652 1779.95 22.7627C1789.96 19.5596 1811.58 30.7705 1813.39 40.1797C1814.39 45.3848 1809.58 57.5967 1794.17 89.0273C1786.56 104.643 1778.15 122.86 1775.35 129.267C1770.14 141.879 1760.53 168.505 1757.73 177.714C1756.93 180.717 1755.93 183.72 1755.73 184.521C1755.13 185.922 1757.33 186.122 1774.35 186.122C1792.37 186.122 1793.77 186.122 1795.57 187.924C1801.17 193.529 1803.98 205.941 1800.77 209.745C1798.97 211.747 1797.57 211.947 1772.95 213.148L1747.12 214.35L1744.92 224.96C1741.92 239.374 1741.32 251.986 1743.12 255.189C1747.12 261.596 1747.12 261.996 1745.12 263.598C1742.92 265.199 1738.51 264.599 1732.31 261.796C1720.09 256.591 1714.89 244.779 1716.09 224.76L1716.69 215.751L1710.29 216.352C1706.88 216.552 1700.08 216.952 1695.47 217.353L1687.06 217.953V223.559C1687.06 228.563 1686.86 229.364 1684.66 230.966C1681.06 233.168 1672.05 233.568 1665.64 231.767C1659.64 229.965 1656.43 226.762 1656.43 222.558C1656.43 219.555 1658.43 219.555 1639.02 221.356L1631.81 222.157L1632.01 230.165C1632.41 240.175 1630.81 258.593 1629.41 261.195C1628.81 262.196 1626.2 263.998 1623.4 265.399C1617.39 268.202 1608.19 268.603 1604.78 266.2ZM1971.14 18.5586C1999.77 18.5586 2001.17 18.959 2002.97 20.3604C2007.78 24.3643 2011.58 36.9766 2009.18 40.9805C2008.38 42.1816 1989.96 44.9844 1969.54 46.9863C1963.53 47.5869 1956.93 48.1875 1955.12 48.5879L1951.72 48.9883L1957.73 75.0137C1964.73 105.644 1972.74 134.071 1982.55 163.5C1997.57 209.545 2011.18 238.573 2023.39 251.986C2027.19 255.99 2027.39 256.591 2026.19 258.593C2023.99 262.797 2016.18 266.2 2007.98 266.601C2001.37 267.001 2000.37 266.801 1996.36 264.198C1978.95 252.787 1958.93 219.354 1936.91 164.301C1932.7 153.29 1919.09 117.255 1916.09 108.446C1915.89 107.646 1910.68 115.854 1904.47 126.664C1872.84 182.719 1850.62 216.752 1832 237.772C1828.2 241.977 1823.6 246.381 1821.99 247.582C1818.99 249.784 1818.79 249.784 1813.59 248.183C1807.78 246.581 1798.97 239.374 1797.97 235.57C1797.57 233.769 1798.57 231.767 1802.17 226.762C1811.58 213.949 1822.39 194.33 1846.22 146.684C1864.44 110.048 1888.86 57.9971 1888.86 55.3945C1888.86 55.1943 1881.65 55.1943 1872.84 55.3945C1854.63 55.9951 1852.62 55.3945 1848.02 49.3887C1845.02 45.3848 1841.81 36.5762 1841.81 31.9717C1841.81 25.165 1844.42 23.1631 1856.83 20.3604C1863.83 18.7588 1870.04 18.5586 1932.5 18.5586C1949.12 18.5586 1961.53 18.5586 1971.14 18.5586ZM1899.27 164.701C1907.08 164.701 1914.28 167.504 1919.29 172.309C1923.49 176.312 1923.49 176.312 1923.49 182.919C1923.49 186.723 1922.89 194.73 1922.09 201.137C1921.29 207.543 1919.89 220.756 1919.09 230.766C1918.09 243.178 1917.29 249.584 1916.29 250.385C1914.28 252.587 1908.08 252.587 1902.27 250.585C1899.47 249.584 1896.47 247.982 1895.47 246.981C1892.26 242.777 1887.86 192.128 1889.46 174.911C1890.26 166.103 1891.66 164.701 1899.27 164.701ZM2070.44 19.3594C2077.84 19.3594 2087.85 19.7598 2099.87 20.5605C2108.27 21.1611 2133.1 22.1621 2155.12 22.7627L2194.96 23.7637L2202.37 26.7666C2214.98 31.5713 2222.58 39.9795 2224.99 51.9912C2227.59 64.2031 2228.59 82.0205 2228.59 117.255C2228.59 148.085 2228.39 154.892 2226.99 161.898C2223.99 176.312 2222.58 179.716 2218.98 182.719L2215.58 185.121L2178.34 186.522C2145.11 187.523 2112.68 189.525 2098.86 191.527L2094.06 192.128L2090.46 206.542C2082.85 236.771 2075.64 255.79 2068.43 263.998C2065.43 267.602 2064.83 267.802 2059.43 268.202C2055.62 268.402 2052.22 268.002 2048.82 266.601C2043.41 264.799 2039.01 261.396 2039.01 259.193C2039.01 258.593 2040.01 254.789 2041.21 250.985C2043.41 244.379 2047.81 223.959 2050.82 206.142L2052.02 198.134L2048.62 198.734C2046.81 199.135 2042.01 200.336 2038.21 201.337C2032 203.339 2031.2 203.339 2029.2 201.938C2023.99 198.534 2019.39 185.321 2020.99 178.715C2021.99 175.312 2030.8 170.507 2045.21 165.702L2056.62 161.898L2057.42 157.895C2059.03 148.886 2061.03 121.859 2061.63 104.242C2062.23 84.0225 2061.43 70.0088 2058.02 49.7891C2055.62 34.9746 2055.42 22.9629 2057.62 20.7607C2058.62 19.7598 2063.23 19.3594 2070.44 19.3594ZM2181.34 50.79C2180.14 50.5898 2175.34 50.9902 2169.93 51.3906C2163.53 51.9912 2146.51 52.792 2131.7 52.9922L2105.07 53.5928L2105.67 55.9951C2108.07 65.6045 2108.67 90.4287 2107.07 108.646C2106.07 119.257 2102.67 145.482 2101.67 150.688C2101.27 153.29 2101.27 153.29 2103.87 152.89C2105.47 152.489 2113.28 151.488 2121.49 150.487C2148.91 146.884 2159.32 146.083 2176.74 146.083H2194.16L2193.76 140.277C2193.16 128.266 2190.55 103.241 2188.55 90.2285C2186.75 76.8154 2182.15 51.1904 2181.54 50.79C2181.54 50.79 2181.54 50.79 2181.34 50.79ZM2384.94 265.399C2382.74 264.398 2380.74 263.197 2380.54 262.797C2380.14 261.996 2374.93 233.969 2374.93 232.167C2374.93 231.767 2370.93 227.362 2366.12 222.357C2351.51 206.942 2338.9 190.727 2317.08 159.096L2305.27 141.479L2298.86 160.897C2283.84 205.741 2267.03 240.175 2250.21 260.194C2245.41 266 2245.01 266.2 2241 266.2C2233.4 266.2 2224.39 261.796 2220.78 255.99C2219.18 253.788 2219.38 253.388 2225.99 240.575C2238.2 216.552 2251.61 179.516 2260.02 145.683C2264.43 128.666 2270.23 96.2344 2270.23 90.0283C2270.23 87.626 2267.83 82.6211 2259.62 69.8086C2247.41 50.1895 2244.21 43.7832 2244.01 37.9775C2244.01 34.5742 2244.41 33.373 2247.21 30.3701C2254.42 22.9629 2270.23 18.1582 2280.24 20.3604C2290.25 22.5625 2294.66 28.168 2313.07 61.8008C2336.3 104.042 2365.32 154.291 2366.12 153.49C2366.33 153.29 2365.92 145.883 2365.32 136.874C2363.72 112.65 2362.72 69.4082 2363.52 56.9961C2363.92 50.3896 2365.12 43.3828 2366.33 39.5791C2369.73 28.7686 2375.13 25.7656 2389.75 26.3662C2405.36 27.167 2413.57 31.9717 2416.77 42.1816C2418.38 46.9863 2418.58 50.5898 2418.58 68.4072C2418.58 79.8184 2417.98 96.835 2417.38 106.444C2416.77 115.854 2415.97 154.491 2415.57 192.328L2415.17 260.795L2412.97 262.997C2409.97 265.8 2404.76 267.201 2396.15 267.201C2391.15 267.201 2387.75 266.601 2384.94 265.399ZM2462.62 270.204C2453.61 268.002 2442.2 253.988 2441 243.979C2440.2 236.771 2441.8 235.771 2459.22 232.968L2468.22 231.566L2468.02 205.741C2467.62 168.505 2471.83 78.8174 2474.63 62.8018C2475.23 59.3984 2474.43 59.1982 2467.02 61.2002C2460.82 63.002 2456.21 63.002 2453.01 61.2002C2448.21 58.7979 2442.8 49.5889 2442 42.3818C2441 34.1738 2443.8 32.5723 2465.82 29.3691C2484.44 26.7666 2503.46 25.165 2520.48 24.7646C2535.89 24.5645 2536.09 24.5645 2538.29 26.7666C2542.1 30.3701 2545.1 37.7773 2544.9 42.9824C2544.9 45.3848 2543.5 45.7852 2525.08 49.1885C2513.67 51.1904 2511.67 51.791 2512.07 52.9922C2515.07 60.1992 2514.67 76.415 2510.47 110.248C2505.66 148.085 2500.86 194.33 2498.85 220.556L2498.25 228.764L2513.87 228.363L2529.68 228.163L2532.89 230.565C2537.89 234.369 2542.5 241.776 2542.5 246.381C2542.7 249.784 2542.5 249.984 2538.69 251.986C2536.49 252.987 2527.48 255.59 2518.67 257.392C2508.66 259.594 2501.46 261.596 2500.06 262.797C2498.45 263.798 2495.25 264.799 2491.25 265.199C2487.84 265.6 2482.44 266.801 2479.24 267.802C2470.63 270.604 2466.22 271.205 2462.62 270.204ZM2589.94 274.809C2581.33 272.406 2575.93 268.202 2568.52 258.393C2565.52 254.188 2565.12 253.188 2565.12 247.382C2565.12 242.377 2565.52 240.575 2567.12 238.974C2573.93 231.767 2569.12 106.845 2559.71 44.1836C2558.31 35.1748 2557.11 23.3633 2556.71 17.958L2556.31 8.14844L2559.11 5.3457C2562.92 1.54199 2568.92 0.741211 2579.13 2.94336C2601.15 7.34766 2614.77 20.1602 2617.97 39.1787C2619.37 47.1865 2618.77 123.861 2616.97 148.886C2614.97 178.515 2611.36 214.55 2608.76 230.365L2607.96 234.169L2628.18 233.368C2650.8 232.768 2661.41 231.166 2672.82 227.162C2682.23 223.559 2688.24 220.155 2693.24 215.551C2698.25 210.946 2699.65 207.943 2699.65 201.737C2699.65 195.131 2701.05 193.529 2705.26 195.932C2712.06 199.335 2716.47 210.746 2715.67 222.758C2715.27 231.767 2712.26 237.572 2703.85 245.78C2690.44 259.394 2670.22 268.603 2643 273.808C2631.78 275.81 2596.15 276.61 2589.94 274.809ZM2854.2 266.601C2847.19 264.398 2839.59 258.993 2837.79 254.989C2836.78 252.387 2836.98 251.586 2839.59 247.782C2850 231.967 2863.21 171.908 2867.61 119.057C2869.22 101.439 2868.21 72.4111 2865.61 54.1934C2864.61 46.5859 2863.41 36.7764 2863.01 32.5723C2862.61 25.9658 2862.81 24.5645 2864.61 22.5625C2866.21 20.3604 2867.21 20.1602 2872.02 20.1602C2878.42 20.3604 2882.63 21.9619 2891.84 27.5674C2897.84 31.1709 2899.65 31.5713 2914.46 34.1738C2923.27 35.5752 2933.48 36.9766 2937.28 37.377L2944.09 37.9775L2945.29 30.9707C2947.09 18.1582 2949.29 16.1562 2960.5 16.957C2969.71 17.7578 2977.32 20.9609 2982.93 26.3662C2987.13 30.3701 2987.73 31.3711 2987.73 34.7744V38.7783H2992.74C3002.95 38.7783 3011.75 37.1768 3013.56 34.9746C3017.56 29.9697 3033.58 32.3721 3044.39 39.3789C3056 46.9863 3056.2 49.9893 3048.79 94.6328C3042.58 132.069 3040.58 149.086 3039.78 176.112C3039.18 198.734 3040.38 215.15 3043.79 228.563C3046.39 238.773 3048.79 243.979 3054 250.585C3056 252.987 3057.8 255.59 3057.8 255.99C3057.8 257.792 3053.2 259.794 3048.59 259.794C3039.18 259.794 3033.98 257.392 3026.57 249.784C3022.77 245.98 3018.36 240.375 3016.56 237.372C3004.35 216.552 2998.14 176.112 2999.54 125.263C3000.14 104.843 3002.15 74.4131 3003.55 67.2061L3004.15 64.2031L2995.14 65.0039C2990.33 65.6045 2985.93 66.2051 2985.53 66.6055C2985.33 67.0059 2984.13 76.415 2982.93 87.8262C2977.12 147.284 2974.92 190.727 2977.12 208.544L2978.32 218.754L2975.92 220.556C2974.12 222.157 2972.52 222.357 2965.51 222.157C2956.7 221.557 2949.29 218.954 2946.89 215.15C2945.09 212.548 2942.09 197.733 2940.49 183.92C2938.88 170.106 2938.88 107.045 2940.49 83.2217C2941.09 74.0127 2941.49 66.2051 2941.29 66.0049C2940.69 65.6045 2918.06 63.002 2917.66 63.4023C2917.46 63.6025 2917.86 66.8057 2918.46 70.4092C2920.67 84.623 2919.46 101.84 2914.26 133.07C2904.25 192.128 2887.83 242.777 2873.42 258.993C2866.21 267.001 2861.61 268.803 2854.2 266.601ZM3232.77 18.5586C3261.4 18.5586 3262.8 18.959 3264.6 20.3604C3269.41 24.3643 3273.21 36.9766 3270.81 40.9805C3270.01 42.1816 3251.59 44.9844 3231.17 46.9863C3225.16 47.5869 3218.56 48.1875 3216.75 48.5879L3213.35 48.9883L3219.36 75.0137C3226.36 105.644 3234.37 134.071 3244.18 163.5C3259.2 209.545 3272.81 238.573 3285.02 251.986C3288.83 255.99 3289.03 256.591 3287.82 258.593C3285.62 262.797 3277.81 266.2 3269.61 266.601C3263 267.001 3262 266.801 3258 264.198C3240.58 252.787 3220.56 219.354 3198.54 164.301C3194.33 153.29 3180.72 117.255 3177.72 108.446C3177.52 107.646 3172.31 115.854 3166.11 126.664C3134.47 182.719 3112.25 216.752 3093.63 237.772C3089.83 241.977 3085.23 246.381 3083.62 247.582C3080.62 249.784 3080.42 249.784 3075.22 248.183C3069.41 246.581 3060.6 239.374 3059.6 235.57C3059.2 233.769 3060.2 231.767 3063.81 226.762C3073.21 213.949 3084.03 194.33 3107.85 146.684C3126.07 110.048 3150.49 57.9971 3150.49 55.3945C3150.49 55.1943 3143.28 55.1943 3134.47 55.3945C3116.26 55.9951 3114.25 55.3945 3109.65 49.3887C3106.65 45.3848 3103.44 36.5762 3103.44 31.9717C3103.44 25.165 3106.05 23.1631 3118.46 20.3604C3125.47 18.7588 3131.67 18.5586 3194.13 18.5586C3210.75 18.5586 3223.16 18.5586 3232.77 18.5586ZM3160.9 164.701C3168.71 164.701 3175.92 167.504 3180.92 172.309C3185.12 176.312 3185.12 176.312 3185.12 182.919C3185.12 186.723 3184.52 194.73 3183.72 201.137C3182.92 207.543 3181.52 220.756 3180.72 230.766C3179.72 243.178 3178.92 249.584 3177.92 250.385C3175.92 252.587 3169.71 252.587 3163.9 250.585C3161.1 249.584 3158.1 247.982 3157.1 246.981C3153.89 242.777 3149.49 192.128 3151.09 174.911C3151.89 166.103 3153.29 164.701 3160.9 164.701ZM3324.66 274.809C3316.05 272.406 3310.65 268.202 3303.24 258.393C3300.24 254.188 3299.84 253.188 3299.84 247.382C3299.84 242.377 3300.24 240.575 3301.84 238.974C3308.64 231.767 3303.84 106.845 3294.43 44.1836C3293.03 35.1748 3291.83 23.3633 3291.43 17.958L3291.03 8.14844L3293.83 5.3457C3297.63 1.54199 3303.64 0.741211 3313.85 2.94336C3335.87 7.34766 3349.48 20.1602 3352.69 39.1787C3354.09 47.1865 3353.49 123.861 3351.69 148.886C3349.68 178.515 3346.08 214.55 3343.48 230.365L3342.68 234.169L3362.9 233.368C3385.52 232.768 3396.13 231.166 3407.54 227.162C3416.95 223.559 3422.96 220.155 3427.96 215.551C3432.97 210.946 3434.37 207.943 3434.37 201.737C3434.37 195.131 3435.77 193.529 3439.97 195.932C3446.78 199.335 3451.18 210.746 3450.38 222.758C3449.98 231.767 3446.98 237.572 3438.57 245.78C3425.16 259.394 3404.94 268.603 3377.71 273.808C3366.5 275.81 3330.87 276.61 3324.66 274.809ZM3477.21 270.204C3468.2 268.002 3456.79 253.988 3455.59 243.979C3454.79 236.771 3456.39 235.771 3473.81 232.968L3482.81 231.566L3482.61 205.741C3482.21 168.505 3486.42 78.8174 3489.22 62.8018C3489.82 59.3984 3489.02 59.1982 3481.61 61.2002C3475.41 63.002 3470.8 63.002 3467.6 61.2002C3462.79 58.7979 3457.39 49.5889 3456.59 42.3818C3455.59 34.1738 3458.39 32.5723 3480.41 29.3691C3499.03 26.7666 3518.05 25.165 3535.07 24.7646C3550.48 24.5645 3550.68 24.5645 3552.88 26.7666C3556.69 30.3701 3559.69 37.7773 3559.49 42.9824C3559.49 45.3848 3558.09 45.7852 3539.67 49.1885C3528.26 51.1904 3526.26 51.791 3526.66 52.9922C3529.66 60.1992 3529.26 76.415 3525.06 110.248C3520.25 148.085 3515.45 194.33 3513.44 220.556L3512.84 228.764L3528.46 228.363L3544.27 228.163L3547.48 230.565C3552.48 234.369 3557.09 241.776 3557.09 246.381C3557.29 249.784 3557.09 249.984 3553.28 251.986C3551.08 252.987 3542.07 255.59 3533.26 257.392C3523.25 259.594 3516.05 261.596 3514.65 262.797C3513.04 263.798 3509.84 264.799 3505.84 265.199C3502.43 265.6 3497.03 266.801 3493.83 267.802C3485.22 270.604 3480.81 271.205 3477.21 270.204ZM3709.64 218.954C3691.42 208.944 3668.6 198.534 3633.36 184.32C3605.53 173.31 3602.53 171.708 3600.53 167.904C3596.93 160.897 3599.53 145.282 3605.13 140.678C3608.34 138.075 3609.94 137.875 3616.14 139.276C3619.55 140.277 3620.55 140.077 3621.95 139.076C3623.75 137.675 3670.4 85.2236 3684.21 69.208C3689.02 63.8027 3694.02 58.3975 3695.22 57.3965C3697.62 55.5947 3698.02 55.5947 3701.03 56.9961C3705.43 58.7979 3712.44 66.4053 3715.44 72.4111C3716.64 75.2139 3717.84 79.6182 3718.04 82.8213C3718.44 87.4258 3718.04 89.0273 3715.84 92.8311C3712.64 98.4365 3685.21 125.863 3666.59 142.079L3652.98 153.891L3669 162.299C3688.01 172.108 3695.22 176.312 3708.43 185.922C3720.85 195.131 3722.05 196.532 3722.05 203.539C3722.05 210.546 3720.65 215.551 3717.44 218.954L3714.84 221.757L3709.64 218.954ZM3755.28 280.014C3749.88 278.412 3743.87 274.008 3741.67 270.204C3740.67 268.202 3747.27 249.984 3755.88 230.966C3776.9 184.12 3842.37 69.6084 3867.99 35.1748C3875.6 24.7646 3888.21 11.3516 3894.42 7.14746C3897.82 4.74512 3899.22 4.34473 3902.22 4.74512C3910.23 5.74609 3920.44 16.3564 3920.44 23.3633C3920.44 26.9668 3912.63 42.582 3903.62 57.1963C3900.42 62.2012 3885.81 84.623 3870.99 106.645C3828.75 169.906 3782.91 242.978 3769.29 268.603C3762.49 281.615 3761.89 282.016 3755.28 280.014ZM3951.47 19.3594C3958.88 19.3594 3968.89 19.7598 3980.9 20.5605C3989.31 21.1611 4014.13 22.1621 4036.15 22.7627L4075.99 23.7637L4083.4 26.7666C4096.01 31.5713 4103.62 39.9795 4106.02 51.9912C4108.62 64.2031 4109.63 82.0205 4109.63 117.255C4109.63 148.085 4109.43 154.892 4108.02 161.898C4105.02 176.312 4103.62 179.716 4100.02 182.719L4096.61 185.121L4059.38 186.522C4026.14 187.523 3993.71 189.525 3979.9 191.527L3975.09 192.128L3971.49 206.542C3963.88 236.771 3956.68 255.79 3949.47 263.998C3946.47 267.602 3945.87 267.802 3940.46 268.202C3936.66 268.402 3933.25 268.002 3929.85 266.601C3924.45 264.799 3920.04 261.396 3920.04 259.193C3920.04 258.593 3921.04 254.789 3922.24 250.985C3924.45 244.379 3928.85 223.959 3931.85 206.142L3933.05 198.134L3929.65 198.734C3927.85 199.135 3923.04 200.336 3919.24 201.337C3913.03 203.339 3912.23 203.339 3910.23 201.938C3905.03 198.534 3900.42 185.321 3902.02 178.715C3903.02 175.312 3911.83 170.507 3926.25 165.702L3937.66 161.898L3938.46 157.895C3940.06 148.886 3942.06 121.859 3942.66 104.242C3943.26 84.0225 3942.46 70.0088 3939.06 49.7891C3936.66 34.9746 3936.46 22.9629 3938.66 20.7607C3939.66 19.7598 3944.26 19.3594 3951.47 19.3594ZM4062.38 50.79C4061.18 50.5898 4056.37 50.9902 4050.97 51.3906C4044.56 51.9912 4027.55 52.792 4012.73 52.9922L3986.11 53.5928L3986.71 55.9951C3989.11 65.6045 3989.71 90.4287 3988.11 108.646C3987.11 119.257 3983.7 145.482 3982.7 150.688C3982.3 153.29 3982.3 153.29 3984.9 152.89C3986.51 152.489 3994.31 151.488 4002.52 150.487C4029.95 146.884 4040.36 146.083 4057.78 146.083H4075.19L4074.79 140.277C4074.19 128.266 4071.59 103.241 4069.59 90.2285C4067.79 76.8154 4063.18 51.1904 4062.58 50.79C4062.58 50.79 4062.58 50.79 4062.38 50.79ZM4166.48 224.359C4164.08 221.757 4162.08 218.554 4161.28 215.751C4160.08 211.547 4160.08 211.146 4162.48 207.943C4170.89 195.932 4197.71 169.105 4217.93 152.089C4222.14 148.686 4225.54 145.482 4225.54 145.082C4225.54 144.882 4221.33 142.479 4216.13 140.077C4202.52 133.471 4185.1 119.657 4164.28 99.0371C4147.46 82.4209 4146.46 74.4131 4160.28 65.4043C4170.69 58.5977 4185.7 56.3955 4193.51 60.3994C4198.31 62.8018 4199.91 64.6035 4208.32 77.416C4223.94 101.039 4244.36 125.062 4249.96 126.464C4251.16 126.664 4253.17 126.464 4254.17 125.863C4255.37 125.463 4257.17 124.862 4258.57 124.862C4263.58 124.862 4269.78 134.071 4269.78 141.679C4269.78 147.484 4266.78 150.688 4247.36 165.502C4219.53 186.522 4198.91 203.739 4182.3 219.755C4177.29 224.56 4172.49 228.563 4171.89 228.563C4171.09 228.563 4168.68 226.762 4166.48 224.359ZM4418.73 218.954C4400.51 208.944 4377.69 198.534 4342.45 184.32C4314.63 173.31 4311.62 171.708 4309.62 167.904C4306.02 160.897 4308.62 145.282 4314.23 140.678C4317.43 138.075 4319.03 137.875 4325.24 139.276C4328.64 140.277 4329.64 140.077 4331.04 139.076C4332.84 137.675 4379.49 85.2236 4393.3 69.208C4398.11 63.8027 4403.11 58.3975 4404.31 57.3965C4406.72 55.5947 4407.12 55.5947 4410.12 56.9961C4414.52 58.7979 4421.53 66.4053 4424.53 72.4111C4425.73 75.2139 4426.94 79.6182 4427.14 82.8213C4427.54 87.4258 4427.14 89.0273 4424.93 92.8311C4421.73 98.4365 4394.3 125.863 4375.69 142.079L4362.07 153.891L4378.09 162.299C4397.11 172.108 4404.31 176.312 4417.53 185.922C4429.94 195.131 4431.14 196.532 4431.14 203.539C4431.14 210.546 4429.74 215.551 4426.54 218.954L4423.93 221.757L4418.73 218.954ZM4464.37 280.014C4458.97 278.412 4452.96 274.008 4450.76 270.204C4449.76 268.202 4456.36 249.984 4464.97 230.966C4485.99 184.12 4551.46 69.6084 4577.08 35.1748C4584.69 24.7646 4597.3 11.3516 4603.51 7.14746C4606.91 4.74512 4608.31 4.34473 4611.32 4.74512C4619.32 5.74609 4629.53 16.3564 4629.53 23.3633C4629.53 26.9668 4621.73 42.582 4612.72 57.1963C4609.51 62.2012 4594.9 84.623 4580.08 106.645C4537.84 169.906 4492 242.978 4478.39 268.603C4471.58 281.615 4470.98 282.016 4464.37 280.014ZM4615.12 16.3564C4616.52 16.3564 4618.12 16.5566 4620.32 17.1572C4623.13 18.1582 4627.93 19.3594 4630.93 20.1602C4655.16 26.9668 4744.25 28.168 4788.29 22.3623C4794.69 21.5615 4801.3 20.5605 4802.7 20.1602C4806.31 19.1592 4814.11 24.7646 4817.12 30.5703C4822.12 39.9795 4826.12 49.7891 4827.33 55.9951C4831.53 79.2178 4812.31 127.265 4782.48 167.704C4744.85 218.754 4697.4 263.998 4670.77 274.008C4663.37 276.811 4654.96 277.411 4648.95 275.609C4640.74 273.207 4630.93 263.998 4631.74 259.394C4632.14 257.992 4633.54 257.191 4637.14 256.791C4647.15 255.59 4659.96 246.181 4682.99 223.158C4733.23 173.109 4766.67 120.858 4783.88 66.2051C4785.89 59.999 4787.29 54.5938 4787.09 54.1934C4786.69 53.9932 4780.08 54.7939 4772.27 55.9951C4748.85 59.3984 4723.22 61.6006 4695 62.2012L4668.17 63.002L4667.57 68.6074C4665.37 88.8271 4663.37 114.652 4663.97 115.053C4664.77 115.854 4704.01 112.65 4712.81 111.049C4718.42 110.048 4719.42 110.048 4722.02 111.85C4727.03 115.854 4731.03 126.264 4729.43 132.47C4728.83 134.872 4727.43 135.473 4716.42 138.075C4709.41 139.677 4694.2 142.68 4682.38 144.682C4668.17 147.084 4660.76 148.886 4660.16 149.887C4658.96 152.089 4653.36 216.552 4653.16 229.164C4653.16 234.97 4652.76 240.375 4652.16 241.176C4651.15 242.777 4643.75 242.978 4638.14 241.176C4635.74 240.575 4632.14 238.373 4629.93 236.571C4606.31 204.54 4634.54 96.4346 4624.13 49.3887L4620.12 44.584C4614.32 37.5771 4610.51 28.3682 4610.92 22.7627C4611.12 18.3584 4612.32 16.5566 4615.12 16.3564ZM4866.76 255.99C4860.56 254.789 4849.15 248.783 4845.94 245.18C4842.74 241.576 4842.54 240.375 4840.74 218.153C4839.14 198.334 4840.14 132.87 4842.74 87.626C4844.94 45.7852 4845.94 34.1738 4848.15 30.3701C4850.95 24.9648 4858.36 22.9629 4869.37 25.165C4883.98 27.9678 4898 37.5771 4900.8 46.9863C4903.8 56.7959 4902.8 68.8076 4892.59 151.288C4885.38 210.946 4883.98 224.56 4883.98 242.177V253.988L4880.78 255.39C4877.17 257.191 4873.57 257.191 4866.76 255.99ZM4976.67 263.998C4975.47 262.797 4975.27 261.796 4975.67 260.795C4976.87 257.992 4977.07 236.371 4976.07 224.159C4973.87 199.936 4968.06 165.302 4962.46 143.48C4955.85 116.654 4945.44 93.6318 4929.23 69.6084C4911.81 43.9834 4910.41 39.3789 4917.41 31.7715C4924.42 23.9639 4937.23 19.3594 4951.05 19.1592C4958.65 19.1592 4960.86 19.5596 4964.06 21.1611C4972.07 25.3652 4978.47 35.7754 4984.48 53.5928C4995.69 87.2256 5000.9 111.649 5005.3 152.089C5007.3 169.906 5007.1 169.706 5008.5 164.501C5009.1 162.099 5011.71 153.891 5014.11 146.283C5028.32 100.639 5061.96 32.7725 5076.77 19.1592C5080.77 15.5557 5080.97 15.5557 5087.78 15.9561C5095.99 16.3564 5103.6 19.5596 5108.8 24.7646C5114.61 30.5703 5115.61 27.5674 5092.58 67.0059C5062.56 118.856 5044.14 156.293 5031.93 191.928C5028.52 201.737 5026.72 202.938 5017.91 200.736C5014.71 199.936 5011.31 198.935 5010.5 198.734C5009.1 198.134 5008.9 199.936 5008.3 216.151C5007.7 240.775 5005.3 249.584 4997.49 257.191C4990.69 263.598 4979.88 267.201 4976.67 263.998ZM5148.24 224.359C5145.84 221.757 5143.83 218.554 5143.03 215.751C5141.83 211.547 5141.83 211.146 5144.24 207.943C5152.64 195.932 5179.47 169.105 5199.69 152.089C5203.89 148.686 5207.3 145.482 5207.3 145.082C5207.3 144.882 5203.09 142.479 5197.89 140.077C5184.27 133.471 5166.86 119.657 5146.04 99.0371C5129.22 82.4209 5128.22 74.4131 5142.03 65.4043C5152.44 58.5977 5167.46 56.3955 5175.27 60.3994C5180.07 62.8018 5181.67 64.6035 5190.08 77.416C5205.7 101.039 5226.12 125.062 5231.72 126.464C5232.92 126.664 5234.92 126.464 5235.92 125.863C5237.13 125.463 5238.93 124.862 5240.33 124.862C5245.33 124.862 5251.54 134.071 5251.54 141.679C5251.54 147.484 5248.54 150.688 5229.12 165.502C5201.29 186.522 5180.67 203.739 5164.05 219.755C5159.05 224.56 5154.25 228.563 5153.64 228.563C5152.84 228.563 5150.44 226.762 5148.24 224.359Z" fill="black" fill-opacity="0.82"/>
</svg>
