<svg width="21" height="29" viewBox="0 0 21 29" fill="none" xmlns="http://www.w3.org/2000/svg">
<path d="M10.5 1.55357H5.4126C3.11539 1.55357 1.25317 3.41579 1.25317 5.71507V5.713C1.25317 8.01229 3.11332 9.87657 5.4126 9.87657H10.5M10.5 1.55357V9.87657M10.5 1.55357H15.5875C17.8847 1.55357 19.7469 3.41579 19.7469 5.71507V5.713C19.7469 8.01229 17.8867 9.87657 15.5875 9.87657H10.5" stroke="black" stroke-width="2" stroke-linecap="round" stroke-linejoin="round"/>
<path d="M19.7469 14.5C19.7469 13.8928 19.6273 13.2916 19.3949 12.7307C19.1626 12.1698 18.822 11.6601 18.3927 11.2307C17.9634 10.8014 17.4537 10.4609 16.8928 10.2285C16.3318 9.99616 15.7306 9.87657 15.1235 9.87657C14.5163 9.87657 13.9151 9.99616 13.3541 10.2285C12.7932 10.4609 12.2835 10.8014 11.8542 11.2307C11.4249 11.6601 11.0843 12.1698 10.852 12.7307C10.6196 13.2916 10.5 13.8928 10.5 14.5C10.5 15.7262 10.9871 16.9022 11.8542 17.7693C12.7213 18.6363 13.8973 19.1234 15.1235 19.1234C16.3497 19.1234 17.5257 18.6363 18.3927 17.7693C19.2598 16.9022 19.7469 15.7262 19.7469 14.5ZM1.25317 23.2849C1.25317 20.9856 3.11539 19.1234 5.4126 19.1234H10.5V22.823C10.5 25.3771 8.4286 27.4464 5.8766 27.4464H5.4126C3.11332 27.4464 1.25317 25.5821 1.25317 23.2849Z" stroke="black" stroke-width="2" stroke-linecap="round" stroke-linejoin="round"/>
<path d="M1.25317 14.5C1.25317 11.9459 3.32253 9.87657 5.8766 9.87657H10.5V19.1234H5.8766C3.32253 19.1234 1.25317 17.052 1.25317 14.5Z" stroke="black" stroke-width="2" stroke-linecap="round" stroke-linejoin="round"/>
</svg>
