<svg width="21" height="28" viewBox="0 0 21 28" fill="none" xmlns="http://www.w3.org/2000/svg">
<path d="M10.2469 1H5.15943C2.86221 1 1 2.86221 1 5.1615V5.15943C1 7.45871 2.86014 9.323 5.15943 9.323H10.2469M10.2469 1V9.323M10.2469 1H15.3343C17.6315 1 19.4937 2.86221 19.4937 5.1615V5.15943C19.4937 7.45871 17.6336 9.323 15.3343 9.323H10.2469" stroke="#FFFAFA" stroke-width="2" stroke-linecap="round" stroke-linejoin="round"/>
<path d="M19.4937 13.9464C19.4937 13.3393 19.3741 12.7381 19.1418 12.1771C18.9094 11.6162 18.5689 11.1065 18.1395 10.6772C17.7102 10.2478 17.2005 9.90728 16.6396 9.67494C16.0787 9.44259 15.4774 9.323 14.8703 9.323C14.2631 9.323 13.6619 9.44259 13.101 9.67494C12.54 9.90728 12.0304 10.2478 11.601 10.6772C11.1717 11.1065 10.8311 11.6162 10.5988 12.1771C10.3664 12.7381 10.2469 13.3393 10.2469 13.9464C10.2469 15.1726 10.734 16.3486 11.601 17.2157C12.4681 18.0827 13.6441 18.5699 14.8703 18.5699C16.0965 18.5699 17.2725 18.0827 18.1395 17.2157C19.0066 16.3486 19.4937 15.1726 19.4937 13.9464ZM1 22.7314C1 20.4321 2.86221 18.5699 5.15943 18.5699H10.2469V22.2694C10.2469 24.8235 8.17543 26.8929 5.62343 26.8929H5.15943C2.86014 26.8929 1 25.0286 1 22.7314Z" stroke="#FFFAFA" stroke-width="2" stroke-linecap="round" stroke-linejoin="round"/>
<path d="M1 13.9464C1 11.3924 3.06936 9.323 5.62343 9.323H10.2469V18.5699H5.62343C3.06936 18.5699 1 16.4984 1 13.9464Z" stroke="#FFFAFA" stroke-width="2" stroke-linecap="round" stroke-linejoin="round"/>
</svg>
