<svg width="38" height="38" viewBox="0 0 38 38" fill="none" xmlns="http://www.w3.org/2000/svg">
<path d="M28.6191 0H8.76094C3.92241 0 0 3.92241 0 8.76094V28.6191C0 33.4576 3.92241 37.38 8.76094 37.38H28.6191C33.4576 37.38 37.38 33.4576 37.38 28.6191V8.76094C37.38 3.92241 33.4576 0 28.6191 0Z" fill="white"/>
<path d="M18.6901 4.38049C10.6268 4.38049 4.08838 10.9176 4.08838 18.9822C4.08838 25.4336 8.27216 30.9069 14.0739 32.8376C14.8036 32.9728 15.0715 32.5209 15.0715 32.1353C15.0715 31.787 15.0579 30.6369 15.0517 29.4168C10.9895 30.3 10.1324 27.6939 10.1324 27.6939C9.46803 26.0061 8.51105 25.5574 8.51105 25.5574C7.18625 24.6511 8.61092 24.6698 8.61092 24.6698C10.0772 24.7727 10.8493 26.1745 10.8493 26.1745C12.1517 28.4068 14.2652 27.7614 15.0984 27.3883C15.2295 26.4445 15.6078 25.8004 16.0254 25.4358C12.7823 25.0665 9.37298 23.8144 9.37298 18.2196C9.37298 16.6254 9.94331 15.3228 10.8774 14.3002C10.7257 13.9324 10.2259 12.4473 11.0187 10.4361C11.0187 10.4361 12.245 10.0437 15.0353 11.9327C16.2001 11.6093 17.4491 11.4471 18.6901 11.4415C19.9309 11.4471 21.1811 11.6093 22.3479 11.9329C25.1349 10.0436 26.3594 10.4362 26.3594 10.4362C27.1542 12.4473 26.6542 13.9325 26.5025 14.3002C27.4388 15.3228 28.0053 16.6254 28.0053 18.2196C28.0053 23.8279 24.5894 25.0627 21.3379 25.4241C21.8617 25.8774 22.3284 26.7659 22.3284 28.1282C22.3284 30.0819 22.3114 31.6543 22.3114 32.1353C22.3114 32.5238 22.5743 32.9791 23.3144 32.8357C29.113 30.9028 33.2915 25.4314 33.2915 18.9822C33.2915 10.9178 26.7539 4.38049 18.6901 4.38049ZM9.55725 25.1809C9.52513 25.2534 9.41094 25.2752 9.30698 25.2254C9.20097 25.1778 9.14154 25.0788 9.17586 25.0061C9.20725 24.9313 9.32173 24.9106 9.42729 24.9607C9.53345 25.0083 9.5939 25.1081 9.55725 25.1809ZM10.2755 25.8217C10.2058 25.8864 10.0696 25.8563 9.97734 25.7543C9.88184 25.6525 9.86388 25.5164 9.93455 25.4508C10.0062 25.3863 10.1384 25.4165 10.234 25.5183C10.3295 25.6214 10.3482 25.7565 10.2755 25.8217ZM10.7682 26.6417C10.6786 26.704 10.5323 26.6457 10.442 26.5157C10.3524 26.3859 10.3524 26.2303 10.4439 26.1678C10.5345 26.1054 10.6786 26.1615 10.7703 26.2904C10.8596 26.4224 10.8596 26.5782 10.7682 26.6417ZM11.6015 27.5914C11.5215 27.6796 11.3511 27.656 11.2262 27.5355C11.0986 27.4178 11.063 27.2508 11.1433 27.1624C11.2243 27.074 11.3957 27.0989 11.5215 27.2184C11.6482 27.3358 11.6869 27.5041 11.6015 27.5914ZM12.6785 27.9119C12.6431 28.0264 12.479 28.0784 12.3136 28.0298C12.1486 27.9797 12.0404 27.8458 12.0738 27.7301C12.1081 27.6151 12.273 27.5609 12.4396 27.6129C12.6046 27.6627 12.7128 27.7957 12.6785 27.9119ZM13.9041 28.048C13.9082 28.1683 13.768 28.2682 13.5944 28.2704C13.4198 28.2743 13.2786 28.1768 13.2767 28.0584C13.2767 27.9368 13.4138 27.8379 13.5883 27.835C13.7621 27.8316 13.9041 27.9283 13.9041 28.048ZM15.1082 28.0019C15.1291 28.1193 15.0085 28.24 14.836 28.2722C14.6665 28.3031 14.5095 28.2305 14.4881 28.114C14.467 27.9936 14.5898 27.873 14.7591 27.8417C14.9318 27.8118 15.0863 27.8824 15.1082 28.0019Z" fill="black"/>
</svg>
