<svg width="36" height="36" viewBox="0 0 36 36" fill="none" xmlns="http://www.w3.org/2000/svg">
<rect width="36" height="36" rx="2" fill="black"/>
<path d="M11.1172 26C9.88672 25.7422 9.04297 25.2383 7.85938 24.043C6.91016 23.0938 6.19531 22.0039 6.06641 21.3125C5.94922 20.7031 5.94922 20.5508 6.06641 20.4219C6.17188 20.3281 6.24219 20.3164 6.61719 20.3398C7.10938 20.3633 7.44922 20.5039 7.53125 20.7148C7.83594 21.5117 8.31641 22.1914 9.11328 22.9531C9.98047 23.7734 11.0234 24.5469 11.293 24.5469C11.3633 24.5469 11.5508 24.3945 11.7617 24.1836C12.3125 23.6211 12.7812 22.6133 13.3086 20.8672C13.6016 19.8711 13.9531 18.4766 13.918 18.4414C13.9062 18.4297 12.3359 18.3945 10.4375 18.3711C7.58984 18.3242 6.92188 18.3008 6.62891 18.2188C5.94922 18.043 5.53906 17.7617 5.28125 17.2578C5.11719 16.918 4.98828 16.4961 4.98828 16.2031C4.98828 16.0273 5.02344 15.9805 5.23438 15.8281C5.57422 15.5703 6.45312 15.1602 8.52734 14.2812C11.5742 12.9805 13.3789 12.0195 14.1055 11.2695C14.3164 11.0469 14.4805 10.9414 14.5625 10.9414C14.8789 10.9414 15.3828 11.6914 15.5 12.3477C15.6172 12.9453 15.4297 13.4141 14.8438 14.0352C14.1758 14.7383 13.0859 15.3711 11.6328 15.8867C11.3516 15.9922 11.1523 16.0977 11.1875 16.1094C11.2227 16.1328 11.5273 16.168 11.8438 16.1914C12.1719 16.2148 12.9688 16.2852 13.6133 16.3672C14.2695 16.4375 15.0195 16.5078 15.3008 16.5312C15.8047 16.5781 15.8047 16.5781 16.0391 16.8242C16.1797 16.9648 16.332 17.1992 16.4023 17.3867C16.5195 17.6914 16.5195 17.75 16.4609 18.6055C16.2852 21.0547 15.8398 23.1289 15.1836 24.4297C14.75 25.3086 14.1289 25.8242 13.2383 26.0352C12.7461 26.1406 11.7148 26.1289 11.1172 26ZM17.6797 26.0352C17.2695 25.9062 16.8242 25.5898 16.7188 25.3555C16.6602 25.2031 16.6719 25.1562 16.8242 24.9336C17.4336 24.0078 18.207 20.4922 18.4648 17.3984C18.5586 16.3672 18.5 14.668 18.3477 13.6016C18.2891 13.1562 18.2188 12.582 18.1953 12.3359C18.1719 11.9492 18.1836 11.8672 18.2891 11.75C18.3828 11.6211 18.4414 11.6094 18.7227 11.6094C19.0977 11.6211 19.3438 11.7148 19.8828 12.043C20.2344 12.2539 20.3398 12.2773 21.207 12.4297C21.7227 12.5117 22.3203 12.5938 22.543 12.6172L22.9414 12.6523L23.0117 12.2422C23.1172 11.4922 23.2461 11.375 23.9023 11.4219C24.4414 11.4688 24.8867 11.6562 25.2148 11.9727C25.4609 12.207 25.4961 12.2656 25.4961 12.4648V12.6992H25.7891C26.3867 12.6992 26.9023 12.6055 27.0078 12.4766C27.2422 12.1836 28.1797 12.3242 28.8125 12.7344C29.4922 13.1797 29.5039 13.3555 29.0703 15.9688C28.707 18.1602 28.5898 19.1562 28.543 20.7383C28.5078 22.0625 28.5781 23.0234 28.7773 23.8086C28.9297 24.4062 29.0703 24.7109 29.375 25.0977C29.4922 25.2383 29.5977 25.3906 29.5977 25.4141C29.5977 25.5195 29.3281 25.6367 29.0586 25.6367C28.5078 25.6367 28.2031 25.4961 27.7695 25.0508C27.5469 24.8281 27.2891 24.5 27.1836 24.3242C26.4688 23.1055 26.1055 20.7383 26.1875 17.7617C26.2227 16.5664 26.3398 14.7852 26.4219 14.3633L26.457 14.1875L25.9297 14.2344C25.6484 14.2695 25.3906 14.3047 25.3672 14.3281C25.3555 14.3516 25.2852 14.9023 25.2148 15.5703C24.875 19.0508 24.7461 21.5938 24.875 22.6367L24.9453 23.2344L24.8047 23.3398C24.6992 23.4336 24.6055 23.4453 24.1953 23.4336C23.6797 23.3984 23.2461 23.2461 23.1055 23.0234C23 22.8711 22.8242 22.0039 22.7305 21.1953C22.6367 20.3867 22.6367 16.6953 22.7305 15.3008C22.7656 14.7617 22.7891 14.3047 22.7773 14.293C22.7422 14.2695 21.418 14.1172 21.3945 14.1406C21.3828 14.1523 21.4062 14.3398 21.4414 14.5508C21.5703 15.3828 21.5 16.3906 21.1953 18.2188C20.6094 21.6758 19.6484 24.6406 18.8047 25.5898C18.3828 26.0586 18.1133 26.1641 17.6797 26.0352Z" fill="white"/>
</svg>
