<svg width="129" height="28" viewBox="0 0 129 28" fill="none" xmlns="http://www.w3.org/2000/svg">
<path d="M14 7C14.3182 7 14.6233 7.1229 14.8483 7.34166C15.0733 7.56042 15.1997 7.85712 15.1997 8.16649V17.0155L17.9494 14.3396C18.1747 14.1205 18.4802 13.9975 18.7988 13.9975C19.1174 13.9975 19.4229 14.1205 19.6482 14.3396C19.8734 14.5586 20 14.8557 20 15.1655C20 15.4752 19.8734 15.7723 19.6482 15.9913L14.8494 20.6573C14.7379 20.7659 14.6056 20.8521 14.4598 20.9109C14.3141 20.9697 14.1578 21 14 21C13.8422 21 13.6859 20.9697 13.5402 20.9109C13.3944 20.8521 13.2621 20.7659 13.1506 20.6573L8.35183 15.9913C8.24028 15.8829 8.1518 15.7541 8.09144 15.6124C8.03107 15.4707 8 15.3188 8 15.1655C8 15.0121 8.03107 14.8602 8.09144 14.7185C8.1518 14.5768 8.24028 14.448 8.35183 14.3396C8.5771 14.1205 8.88263 13.9975 9.20121 13.9975C9.35896 13.9975 9.51516 14.0277 9.6609 14.0864C9.80664 14.1451 9.93906 14.2311 10.0506 14.3396L12.8003 17.0155V8.16649C12.8003 7.85712 12.9267 7.56042 13.1517 7.34166C13.3767 7.1229 13.6818 7 14 7Z" fill="black"/>
<rect x="1" y="1" width="26" height="26" rx="7" stroke="black" stroke-width="2"/>
<path d="M41.523 19.247C41.133 19.247 40.7777 19.1993 40.457 19.104C40.145 19.0087 39.8677 18.8873 39.625 18.74C39.391 18.5927 39.1917 18.441 39.027 18.285C38.8623 18.129 38.741 17.986 38.663 17.856C38.5503 17.7 38.4767 17.5613 38.442 17.44C38.4073 17.3187 38.416 17.2017 38.468 17.089C38.5287 16.9677 38.637 16.842 38.793 16.712C38.949 16.5733 39.092 16.504 39.222 16.504C39.3607 16.4953 39.4907 16.5343 39.612 16.621C39.742 16.7077 39.8677 16.829 39.989 16.985C40.197 17.2623 40.431 17.4617 40.691 17.583C40.951 17.6957 41.211 17.752 41.471 17.752C41.809 17.752 42.1037 17.7087 42.355 17.622C42.6063 17.5267 42.8013 17.388 42.94 17.206C43.0873 17.024 43.161 16.79 43.161 16.504C43.161 16.27 43.0873 16.0793 42.94 15.932C42.8013 15.776 42.615 15.646 42.381 15.542C42.147 15.4293 41.8827 15.3297 41.588 15.243C41.302 15.1477 41.0117 15.0437 40.717 14.931C40.509 14.8617 40.301 14.7793 40.093 14.684C39.885 14.58 39.69 14.463 39.508 14.333C39.3347 14.203 39.1787 14.0513 39.04 13.878C38.91 13.696 38.806 13.488 38.728 13.254C38.65 13.02 38.611 12.747 38.611 12.435C38.611 11.941 38.7323 11.5077 38.975 11.135C39.2177 10.7537 39.5557 10.4547 39.989 10.238C40.4223 10.0127 40.9163 9.9 41.471 9.9C41.8263 9.9 42.1427 9.93467 42.42 10.004C42.706 10.0647 42.9487 10.147 43.148 10.251C43.356 10.3463 43.525 10.446 43.655 10.55C43.7937 10.6453 43.8933 10.7277 43.954 10.797C44.1533 10.9963 44.2617 11.1653 44.279 11.304C44.305 11.434 44.227 11.6117 44.045 11.837C43.863 12.071 43.6853 12.201 43.512 12.227C43.3473 12.2443 43.161 12.175 42.953 12.019C42.8143 11.8717 42.6757 11.7547 42.537 11.668C42.3983 11.5727 42.2423 11.5033 42.069 11.46C41.9043 11.4167 41.7007 11.395 41.458 11.395C41.2847 11.395 41.1157 11.421 40.951 11.473C40.795 11.5163 40.6607 11.5857 40.548 11.681C40.4353 11.7677 40.3443 11.876 40.275 12.006C40.2143 12.136 40.184 12.2833 40.184 12.448C40.184 12.6733 40.2447 12.8597 40.366 13.007C40.496 13.1457 40.6693 13.2627 40.886 13.358C41.1027 13.4447 41.3453 13.527 41.614 13.605C41.8827 13.683 42.1557 13.7653 42.433 13.852C42.719 13.9473 43.0007 14.06 43.278 14.19C43.5553 14.32 43.8023 14.4847 44.019 14.684C44.2357 14.8747 44.409 15.1173 44.539 15.412C44.669 15.698 44.734 16.049 44.734 16.465C44.734 16.9417 44.643 17.3577 44.461 17.713C44.279 18.0683 44.032 18.3587 43.72 18.584C43.408 18.8093 43.0613 18.974 42.68 19.078C42.2987 19.1907 41.913 19.247 41.523 19.247ZM50.2435 19.182C49.8188 19.182 49.3898 19.1213 48.9565 19C48.5231 18.87 48.1071 18.6793 47.7085 18.428C47.3098 18.168 46.9545 17.8517 46.6425 17.479C46.3391 17.0977 46.0965 16.66 45.9145 16.166C45.7325 15.6633 45.6415 15.1087 45.6415 14.502C45.6415 13.904 45.7325 13.3667 45.9145 12.89C46.0965 12.4047 46.3391 11.98 46.6425 11.616C46.9545 11.252 47.3055 10.9487 47.6955 10.706C48.0941 10.4633 48.5101 10.2813 48.9435 10.16C49.3855 10.03 49.8231 9.96067 50.2565 9.952C50.6985 9.952 51.0798 9.99967 51.4005 10.095C51.7211 10.1903 51.9811 10.2943 52.1805 10.407C52.3798 10.511 52.5141 10.5847 52.5835 10.628C52.7221 10.7147 52.8521 10.8143 52.9735 10.927C53.1035 11.031 53.1728 11.161 53.1815 11.317C53.1901 11.421 53.1771 11.5163 53.1425 11.603C53.1078 11.681 53.0601 11.7633 52.9995 11.85C52.8955 11.9973 52.7915 12.1057 52.6875 12.175C52.5835 12.2443 52.4795 12.279 52.3755 12.279C52.2801 12.279 52.1891 12.253 52.1025 12.201C52.0245 12.149 51.9248 12.084 51.8035 12.006C51.7515 11.9713 51.6561 11.9193 51.5175 11.85C51.3875 11.772 51.2098 11.7027 50.9845 11.642C50.7678 11.5813 50.5035 11.551 50.1915 11.551C49.8188 11.551 49.4548 11.616 49.0995 11.746C48.7441 11.876 48.4235 12.071 48.1375 12.331C47.8601 12.5823 47.6391 12.8987 47.4745 13.28C47.3098 13.6527 47.2275 14.0817 47.2275 14.567C47.2275 15.0523 47.3098 15.4857 47.4745 15.867C47.6391 16.2397 47.8601 16.556 48.1375 16.816C48.4235 17.0673 48.7441 17.258 49.0995 17.388C49.4548 17.518 49.8188 17.583 50.1915 17.583C50.4861 17.583 50.7375 17.557 50.9455 17.505C51.1621 17.4443 51.3441 17.375 51.4915 17.297C51.6475 17.2103 51.7645 17.1453 51.8425 17.102C51.9378 17.0413 52.0288 16.985 52.1155 16.933C52.2021 16.881 52.2931 16.855 52.3885 16.855C52.4925 16.855 52.5921 16.8897 52.6875 16.959C52.7915 17.0283 52.8911 17.141 52.9865 17.297C53.0471 17.3923 53.0948 17.4833 53.1295 17.57C53.1641 17.6567 53.1771 17.7477 53.1685 17.843C53.1598 17.999 53.0905 18.1333 52.9605 18.246C52.8391 18.35 52.7091 18.441 52.5705 18.519C52.5011 18.5623 52.3668 18.6403 52.1675 18.753C51.9768 18.857 51.7211 18.9523 51.4005 19.039C51.0798 19.1343 50.6941 19.182 50.2435 19.182ZM55.252 19.117C55.0093 19.117 54.8317 19.0823 54.719 19.013C54.615 18.9437 54.5457 18.8483 54.511 18.727C54.485 18.597 54.472 18.4627 54.472 18.324V10.823C54.472 10.6843 54.4893 10.5587 54.524 10.446C54.5587 10.3247 54.628 10.2293 54.732 10.16C54.8447 10.082 55.0223 10.043 55.265 10.043H58.047C58.4457 10.043 58.8227 10.108 59.178 10.238C59.542 10.3593 59.867 10.55 60.153 10.81C60.439 11.0613 60.6643 11.382 60.829 11.772C61.0023 12.1533 61.089 12.5997 61.089 13.111C61.089 13.449 61.037 13.787 60.933 14.125C60.829 14.4543 60.673 14.762 60.465 15.048C60.2657 15.3253 60.01 15.5637 59.698 15.763C59.386 15.9623 59.0177 16.0923 58.593 16.153H56.045V18.337C56.045 18.4757 56.0277 18.6057 55.993 18.727C55.967 18.8483 55.8977 18.9437 55.785 19.013C55.681 19.0823 55.5033 19.117 55.252 19.117ZM60.79 18.922C60.5387 19.0953 60.3307 19.1603 60.166 19.117C60.01 19.0737 59.854 18.935 59.698 18.701L57.514 15.399L59.269 15.165L60.998 17.791C61.1193 17.9643 61.193 18.1117 61.219 18.233C61.245 18.3543 61.2233 18.467 61.154 18.571C61.0847 18.675 60.9633 18.792 60.79 18.922ZM56.045 14.593H58.242C58.398 14.593 58.5497 14.567 58.697 14.515C58.853 14.4543 58.9917 14.3633 59.113 14.242C59.2343 14.112 59.3297 13.956 59.399 13.774C59.477 13.5833 59.516 13.358 59.516 13.098C59.516 12.786 59.4553 12.5217 59.334 12.305C59.2127 12.0797 59.0393 11.9107 58.814 11.798C58.5973 11.6767 58.333 11.616 58.021 11.616H56.045V14.593ZM66.3722 19.234C65.7482 19.234 65.1632 19.117 64.6172 18.883C64.0799 18.6403 63.6032 18.311 63.1872 17.895C62.7712 17.4703 62.4462 16.985 62.2122 16.439C61.9782 15.8843 61.8612 15.2907 61.8612 14.658C61.8612 14.008 61.9739 13.4013 62.1992 12.838C62.4332 12.266 62.7495 11.7677 63.1482 11.343C63.5555 10.9097 64.0235 10.5717 64.5522 10.329C65.0809 10.0863 65.6485 9.965 66.2552 9.965C66.8879 9.965 67.4729 10.0863 68.0102 10.329C68.5562 10.563 69.0329 10.8923 69.4402 11.317C69.8475 11.7417 70.1682 12.2357 70.4022 12.799C70.6362 13.3537 70.7532 13.956 70.7532 14.606C70.7532 15.2387 70.6405 15.8367 70.4152 16.4C70.1899 16.9547 69.8735 17.4487 69.4662 17.882C69.0589 18.3067 68.5909 18.6403 68.0622 18.883C67.5422 19.117 66.9789 19.234 66.3722 19.234ZM66.3072 17.648C66.7059 17.648 67.0785 17.57 67.4252 17.414C67.7719 17.258 68.0752 17.0413 68.3352 16.764C68.6039 16.4867 68.8119 16.166 68.9592 15.802C69.1065 15.4293 69.1802 15.0307 69.1802 14.606C69.1802 14.1813 69.1022 13.787 68.9462 13.423C68.7989 13.0503 68.5909 12.7253 68.3222 12.448C68.0622 12.162 67.7589 11.941 67.4122 11.785C67.0742 11.629 66.7059 11.551 66.3072 11.551C65.9172 11.551 65.5489 11.629 65.2022 11.785C64.8555 11.941 64.5479 12.162 64.2792 12.448C64.0192 12.7253 63.8155 13.0503 63.6682 13.423C63.5209 13.7957 63.4472 14.19 63.4472 14.606C63.4472 15.022 63.5209 15.4163 63.6682 15.789C63.8242 16.1617 64.0322 16.4867 64.2922 16.764C64.5522 17.0413 64.8512 17.258 65.1892 17.414C65.5359 17.57 65.9085 17.648 66.3072 17.648ZM72.6192 19.13C72.3679 19.13 72.1859 19.091 72.0732 19.013C71.9605 18.9437 71.8869 18.8483 71.8522 18.727C71.8262 18.6057 71.8132 18.4757 71.8132 18.337V10.836C71.8132 10.6887 71.8262 10.5543 71.8522 10.433C71.8869 10.3117 71.9562 10.2163 72.0602 10.147C72.1729 10.0777 72.3549 10.043 72.6062 10.043C72.8489 10.043 73.0222 10.0777 73.1262 10.147C73.2389 10.2163 73.3082 10.3117 73.3342 10.433C73.3689 10.5543 73.3862 10.6887 73.3862 10.836V17.726H77.3512C77.4812 17.726 77.5982 17.739 77.7022 17.765C77.8062 17.7823 77.8885 17.843 77.9492 17.947C78.0099 18.0423 78.0402 18.1983 78.0402 18.415C78.0402 18.6317 78.0099 18.792 77.9492 18.896C77.8885 18.9913 77.8062 19.052 77.7022 19.078C77.5982 19.1127 77.4812 19.13 77.3512 19.13H72.6192ZM79.919 19.13C79.6677 19.13 79.4857 19.091 79.373 19.013C79.2603 18.9437 79.1867 18.8483 79.152 18.727C79.126 18.6057 79.113 18.4757 79.113 18.337V10.836C79.113 10.6887 79.126 10.5543 79.152 10.433C79.1867 10.3117 79.256 10.2163 79.36 10.147C79.4727 10.0777 79.6547 10.043 79.906 10.043C80.1487 10.043 80.322 10.0777 80.426 10.147C80.5387 10.2163 80.608 10.3117 80.634 10.433C80.6687 10.5543 80.686 10.6887 80.686 10.836V17.726H84.651C84.781 17.726 84.898 17.739 85.002 17.765C85.106 17.7823 85.1883 17.843 85.249 17.947C85.3097 18.0423 85.34 18.1983 85.34 18.415C85.34 18.6317 85.3097 18.792 85.249 18.896C85.1883 18.9913 85.106 19.052 85.002 19.078C84.898 19.1127 84.781 19.13 84.651 19.13H79.919ZM90.3264 19.117C90.1011 19.117 89.9321 19.078 89.8194 19C89.7068 18.9307 89.6331 18.8353 89.5984 18.714C89.5638 18.5927 89.5464 18.4627 89.5464 18.324V10.81C89.5464 10.6713 89.5594 10.5457 89.5854 10.433C89.6201 10.3117 89.6938 10.2163 89.8064 10.147C89.9191 10.069 90.0968 10.03 90.3394 10.03L92.7834 10.043C93.4161 10.043 93.9968 10.1513 94.5254 10.368C95.0628 10.5847 95.5264 10.8923 95.9164 11.291C96.3064 11.6897 96.6054 12.1663 96.8134 12.721C97.0301 13.267 97.1384 13.8693 97.1384 14.528C97.1384 15.204 97.0301 15.8237 96.8134 16.387C96.5968 16.9503 96.2934 17.4357 95.9034 17.843C95.5134 18.2503 95.0498 18.5667 94.5124 18.792C93.9838 19.0087 93.3944 19.117 92.7444 19.117H90.3264ZM91.1194 17.544H92.7834C93.3381 17.544 93.8234 17.4227 94.2394 17.18C94.6554 16.9287 94.9761 16.582 95.2014 16.14C95.4354 15.698 95.5524 15.1823 95.5524 14.593C95.5524 13.995 95.4354 13.475 95.2014 13.033C94.9761 12.5823 94.6511 12.2357 94.2264 11.993C93.8104 11.7417 93.3251 11.616 92.7704 11.616H91.1194V17.544ZM102.49 19.234C101.866 19.234 101.281 19.117 100.735 18.883C100.198 18.6403 99.7214 18.311 99.3054 17.895C98.8894 17.4703 98.5644 16.985 98.3304 16.439C98.0964 15.8843 97.9794 15.2907 97.9794 14.658C97.9794 14.008 98.092 13.4013 98.3174 12.838C98.5514 12.266 98.8677 11.7677 99.2664 11.343C99.6737 10.9097 100.142 10.5717 100.67 10.329C101.199 10.0863 101.767 9.965 102.373 9.965C103.006 9.965 103.591 10.0863 104.128 10.329C104.674 10.563 105.151 10.8923 105.558 11.317C105.966 11.7417 106.286 12.2357 106.52 12.799C106.754 13.3537 106.871 13.956 106.871 14.606C106.871 15.2387 106.759 15.8367 106.533 16.4C106.308 16.9547 105.992 17.4487 105.584 17.882C105.177 18.3067 104.709 18.6403 104.18 18.883C103.66 19.117 103.097 19.234 102.49 19.234ZM102.425 17.648C102.824 17.648 103.197 17.57 103.543 17.414C103.89 17.258 104.193 17.0413 104.453 16.764C104.722 16.4867 104.93 16.166 105.077 15.802C105.225 15.4293 105.298 15.0307 105.298 14.606C105.298 14.1813 105.22 13.787 105.064 13.423C104.917 13.0503 104.709 12.7253 104.44 12.448C104.18 12.162 103.877 11.941 103.53 11.785C103.192 11.629 102.824 11.551 102.425 11.551C102.035 11.551 101.667 11.629 101.32 11.785C100.974 11.941 100.666 12.162 100.397 12.448C100.137 12.7253 99.9337 13.0503 99.7864 13.423C99.639 13.7957 99.5654 14.19 99.5654 14.606C99.5654 15.022 99.639 15.4163 99.7864 15.789C99.9424 16.1617 100.15 16.4867 100.41 16.764C100.67 17.0413 100.969 17.258 101.307 17.414C101.654 17.57 102.027 17.648 102.425 17.648ZM110.843 19.091C110.67 19.091 110.531 19.0607 110.427 19C110.323 18.9307 110.245 18.8527 110.193 18.766C110.15 18.6793 110.12 18.6057 110.102 18.545L107.554 11.083C107.468 10.8057 107.455 10.5977 107.515 10.459C107.576 10.3117 107.754 10.1903 108.048 10.095C108.248 10.0257 108.408 9.99533 108.529 10.004C108.651 10.0127 108.75 10.0647 108.828 10.16C108.915 10.2467 108.989 10.3853 109.049 10.576L110.921 16.244L112.598 10.628C112.624 10.5413 112.659 10.4547 112.702 10.368C112.754 10.2727 112.832 10.1947 112.936 10.134C113.04 10.0733 113.183 10.043 113.365 10.043C113.573 10.043 113.729 10.0777 113.833 10.147C113.937 10.2163 114.011 10.2943 114.054 10.381C114.106 10.459 114.141 10.5327 114.158 10.602L115.835 16.283L117.72 10.589C117.781 10.3897 117.85 10.2423 117.928 10.147C118.015 10.0517 118.123 9.99967 118.253 9.991C118.383 9.97367 118.544 9.99967 118.734 10.069C118.934 10.1383 119.077 10.2163 119.163 10.303C119.25 10.381 119.293 10.485 119.293 10.615C119.293 10.7363 119.263 10.8923 119.202 11.083L116.667 18.558C116.65 18.61 116.615 18.6793 116.563 18.766C116.52 18.8527 116.446 18.9307 116.342 19C116.238 19.0607 116.095 19.091 115.913 19.091C115.731 19.091 115.588 19.052 115.484 18.974C115.38 18.896 115.302 18.8093 115.25 18.714C115.198 18.6187 115.164 18.5493 115.146 18.506L113.378 12.786L111.61 18.493C111.593 18.5537 111.558 18.6317 111.506 18.727C111.463 18.8223 111.389 18.909 111.285 18.987C111.181 19.0563 111.034 19.091 110.843 19.091ZM121.074 19.117C120.84 19.117 120.667 19.078 120.554 19C120.45 18.9307 120.381 18.8353 120.346 18.714C120.32 18.5927 120.307 18.4627 120.307 18.324V10.784C120.307 10.654 120.324 10.5327 120.359 10.42C120.394 10.3073 120.467 10.2163 120.58 10.147C120.701 10.0777 120.879 10.043 121.113 10.043C121.373 10.043 121.551 10.0733 121.646 10.134C121.75 10.186 121.845 10.264 121.932 10.368L126.274 16.439V10.784C126.274 10.654 126.291 10.5327 126.326 10.42C126.361 10.3073 126.434 10.2163 126.547 10.147C126.66 10.0777 126.833 10.043 127.067 10.043C127.31 10.043 127.483 10.082 127.587 10.16C127.7 10.2293 127.769 10.3247 127.795 10.446C127.83 10.5673 127.847 10.7017 127.847 10.849V18.337C127.847 18.4757 127.825 18.6057 127.782 18.727C127.747 18.8397 127.669 18.9307 127.548 19C127.435 19.078 127.258 19.117 127.015 19.117C126.824 19.117 126.673 19.0997 126.56 19.065C126.456 19.0303 126.361 18.9567 126.274 18.844L121.867 12.786V18.337C121.867 18.4757 121.85 18.6057 121.815 18.727C121.789 18.8397 121.72 18.9307 121.607 19C121.494 19.078 121.317 19.117 121.074 19.117Z" fill="black"/>
</svg>
